<svg width="120" height="120" viewBox="0 0 120 120" fill="none" xmlns="http://www.w3.org/2000/svg">
<g clip-path="url(#clip0_90_3321)">
<path d="M32.1019 72.2423C33.2224 71.5961 33.6061 70.1613 32.9597 69.0407C32.3123 67.9211 30.8787 67.5365 29.7581 68.1829C28.6376 68.8302 28.253 70.2648 28.9003 71.3845C29.5465 72.505 30.9813 72.8896 32.1019 72.2423Z" fill="#77B3EE"/>
<path d="M22.4963 88.4187L34.2994 108.863C36.8464 113.28 42.5757 114.915 47.1066 112.296C51.5902 109.705 53.1308 103.976 50.5372 99.4894L43.5059 87.3089L49.595 83.7933C50.7158 83.1453 51.1001 81.7125 50.4528 80.5918L47.4052 75.3129C47.7685 75.2426 50.1582 74.7739 92.2972 66.5075C97.5064 66.2246 100.628 60.5271 97.9962 55.9723L90.207 42.4812L95.1847 34.9418C95.4245 34.5786 95.5586 34.1557 95.5717 33.7205C95.5848 33.2854 95.4765 32.8552 95.259 32.4781L90.5715 24.3593C90.3533 23.9827 90.0348 23.6742 89.6515 23.4681C89.2682 23.262 88.8351 23.1665 88.4007 23.1921L79.3836 23.7331L70.7365 8.75488C69.484 6.58527 67.2401 5.27137 64.7351 5.2402C64.7049 5.23926 64.6756 5.23926 64.6454 5.23926C62.2247 5.23926 60.0275 6.44418 58.7258 8.48113L28.1086 47.4846L8.20412 58.9761C0.375525 63.4943 -2.33666 73.538 2.1992 81.3877C6.34295 88.5654 15.0788 91.3889 22.4963 88.4189V88.4187ZM46.4787 101.834C47.7732 104.073 47.007 106.939 44.761 108.236C42.5079 109.539 39.6387 108.739 38.3588 106.521L26.6401 86.2205L34.7588 81.533C48.3216 105.027 46.2608 101.458 46.4787 101.834ZM41.1622 83.2486L38.8184 79.1893L42.8778 76.8455L45.2215 80.9049L41.1622 83.2486ZM87.2361 27.9572L90.4751 33.5677L87.5867 37.9421L82.0039 28.2713L87.2361 27.9572ZM62.6459 11.0511C63.275 10.0221 64.2727 9.91598 64.6775 9.92676C65.0776 9.93145 66.0746 10.0559 66.676 11.0979L93.9368 58.3161C94.8249 59.8533 93.7454 61.786 91.9648 61.83C91.6454 61.8371 91.4979 61.895 90.6793 62.048L61.8429 12.1011C62.4481 11.3229 62.5259 11.2479 62.6459 11.0511ZM58.7239 16.0746L85.8169 63.0019L44.9279 71.0218L32.495 49.4876L58.7239 16.0746ZM6.25857 79.0437C5.23041 77.2662 4.68804 75.2495 4.68592 73.196C4.68592 69.016 6.9324 65.123 10.5476 63.0359L28.8153 52.489L40.534 72.7859L22.2666 83.3339C16.67 86.5636 9.48943 84.6394 6.25881 79.0437H6.25857Z" fill="#77B3EE"/>
<path d="M24.8401 73.7282C24.193 72.6076 22.7591 72.223 21.6385 72.8704L17.5792 75.2141C16.4603 75.8605 15.024 75.475 14.3776 74.3563C13.7303 73.2358 12.2964 72.8512 11.176 73.4985C10.0557 74.1458 9.67088 75.5795 10.3182 76.7001C12.2471 80.0418 16.5503 81.22 19.9229 79.2735L23.9823 76.9297C25.1028 76.2826 25.4874 74.8497 24.8401 73.7282ZM116.517 10.2529L103.457 17.5204C102.326 18.1501 101.919 19.5775 102.548 20.7081C103.176 21.8378 104.603 22.2472 105.736 21.6163L118.795 14.349C119.927 13.719 120.333 12.2917 119.703 11.1611C119.075 10.0295 117.647 9.62311 116.517 10.2529ZM115.147 34.5271L106.091 32.1011C104.841 31.7659 103.555 32.5075 103.22 33.7581C102.885 35.0087 103.628 36.2933 104.878 36.6283L113.935 39.0545C115.193 39.3922 116.472 38.6387 116.805 37.3975C117.14 36.1469 116.398 34.8615 115.147 34.5271ZM92.3907 1.73756L89.9617 10.7938C89.6265 12.0447 90.3681 13.329 91.6187 13.6649C92.8684 13.9991 94.1539 13.2594 94.4898 12.0079L96.9179 2.95162C97.2531 1.701 96.5113 0.415684 95.2609 0.0805282C94.011 -0.254628 92.7256 0.486934 92.3905 1.73756H92.3907Z" fill="#77B3EE"/>
</g>
<defs>
<clipPath id="clip0_90_3321">
<rect width="120" height="120" fill="white"/>
</clipPath>
</defs>
</svg>
