<svg width="65" height="65" viewBox="0 0 65 65" fill="none" xmlns="http://www.w3.org/2000/svg">
<path d="M58.683 6.57833H53.7967L54.2301 5.60251C54.316 5.40918 54.3413 5.19437 54.3026 4.98639C54.264 4.77841 54.1632 4.58703 54.0136 4.43747L52.0021 2.4259C51.8525 2.27639 51.6611 2.1757 51.4531 2.13707C51.2451 2.09843 51.0303 2.12367 50.837 2.20946L49.6171 2.75135C49.0118 2.42362 48.3743 2.15928 47.7146 1.96253L47.2354 0.717791C47.1595 0.520334 47.0254 0.350532 46.851 0.230764C46.6766 0.110996 46.47 0.0468834 46.2584 0.046875H43.414C43.2024 0.0468732 42.9958 0.110967 42.8214 0.23071C42.647 0.350454 42.513 0.520228 42.437 0.71766L41.9579 1.96239C41.2983 2.15913 40.6607 2.42348 40.0554 2.75121L38.8356 2.20933C38.6422 2.12339 38.4274 2.09808 38.2194 2.13672C38.0114 2.17536 37.82 2.27614 37.6704 2.42577L35.659 4.43721C35.5094 4.5868 35.4086 4.77821 35.37 4.9862C35.3313 5.1942 35.3566 5.40902 35.4424 5.60238L35.8758 6.5782H32.6228V4.43079C32.6228 2.57037 31.1092 1.05698 29.249 1.05698H28.3181C26.4579 1.05698 24.9443 2.57037 24.9443 4.43079V6.57833H6.31755C3.11725 6.57833 0.513672 9.18191 0.513672 12.3825V45.1087C0.513672 48.309 3.11725 50.9127 6.31755 50.9127H21.7295V56.3769H15.5355C12.7214 56.3769 10.4319 58.3005 10.4319 60.6651V63.9062C10.4319 64.1839 10.5422 64.4502 10.7385 64.6465C10.9348 64.8428 11.2011 64.9531 11.4788 64.9531H53.5221C53.7997 64.9531 54.066 64.8428 54.2623 64.6465C54.4586 64.4502 54.5689 64.1839 54.5689 63.9062V60.6649C54.5689 58.3004 52.2794 56.3766 49.4653 56.3766H43.2712V50.9124H58.6832C61.8834 50.9124 64.4872 48.3089 64.4872 45.1084V12.3825C64.487 9.18204 61.8833 6.57833 58.683 6.57833ZM37.0863 9.75311C37.2812 8.93336 37.6059 8.15005 38.0482 7.43284C38.1374 7.28805 38.19 7.12369 38.2014 6.95401C38.2128 6.78432 38.1827 6.61441 38.1136 6.45898L37.6476 5.40962L38.6426 4.4147L39.6922 4.88082C39.8476 4.94988 40.0175 4.98002 40.1871 4.96864C40.3568 4.95727 40.5211 4.90471 40.6659 4.81552C41.3831 4.37345 42.1662 4.04872 42.9858 3.85357C43.1512 3.81426 43.3046 3.73524 43.4326 3.62333C43.5606 3.51142 43.6594 3.37 43.7204 3.21132L44.1328 2.14062H45.5398L45.952 3.21145C46.0131 3.37012 46.1119 3.51153 46.2399 3.62343C46.3679 3.73534 46.5212 3.81437 46.6866 3.8537C47.5062 4.04884 48.2893 4.37357 49.0065 4.81565C49.1513 4.90487 49.3156 4.95745 49.4853 4.96883C49.6549 4.9802 49.8248 4.95004 49.9802 4.88095L51.03 4.41483L52.0249 5.40975L51.5588 6.45938C51.4897 6.61478 51.4596 6.78467 51.471 6.95433C51.4824 7.124 51.535 7.28833 51.6242 7.4331C52.0663 8.15028 52.3911 8.93348 52.5862 9.75311C52.6255 9.9185 52.7046 10.0718 52.8165 10.1998C52.9285 10.3278 53.0699 10.4266 53.2285 10.4876L54.2991 10.8997V12.3067L53.2288 12.7186C53.0701 12.7797 52.9287 12.8785 52.8168 13.0065C52.7049 13.1345 52.6258 13.2878 52.5864 13.4532C52.3914 14.273 52.0666 15.0564 51.6243 15.7737C51.5352 15.9185 51.4826 16.0829 51.4713 16.2525C51.4599 16.4222 51.49 16.5921 51.559 16.7475L52.025 17.7968L51.0301 18.7917L49.9804 18.3256C49.8249 18.2566 49.6551 18.2264 49.4854 18.2378C49.3158 18.2492 49.1514 18.3017 49.0066 18.3909C48.2895 18.833 47.5063 19.1577 46.6867 19.3528C46.5213 19.3921 46.368 19.4712 46.24 19.5831C46.112 19.695 46.0132 19.8364 45.9521 19.9951L45.54 21.0659H44.133L43.7211 19.9955C43.66 19.8368 43.5612 19.6954 43.4332 19.5835C43.3052 19.4715 43.1519 19.3925 42.9864 19.3532C42.1666 19.1582 41.3833 18.8334 40.666 18.3911C40.5212 18.302 40.3568 18.2494 40.1871 18.238C40.0174 18.2266 39.8475 18.2567 39.6921 18.3257L38.643 18.7918L37.648 17.7969L38.1143 16.7471C38.1833 16.5917 38.2134 16.4219 38.202 16.2522C38.1906 16.0825 38.1381 15.9182 38.0489 15.7734C37.6068 15.0563 37.2821 14.2731 37.087 13.4535C37.0477 13.2881 36.9686 13.1348 36.8567 13.0068C36.7448 12.8788 36.6033 12.78 36.4446 12.7189L35.374 12.3068V10.8998L36.4443 10.4879C36.6029 10.4267 36.7442 10.3278 36.8561 10.1998C36.9679 10.0718 37.0469 9.91849 37.0863 9.75311ZM25.0846 28.5959L27.8769 33.4324C27.9687 33.5916 28.1009 33.7238 28.26 33.8157C28.4192 33.9076 28.5997 33.956 28.7835 33.956C28.9673 33.956 29.1478 33.9076 29.307 33.8157C29.4661 33.7238 29.5982 33.5916 29.6901 33.4324L32.4824 28.5959C32.5742 28.4368 32.6226 28.2563 32.6226 28.0725V12.6502H33.2798V13.0256C33.2798 13.2372 33.3439 13.4438 33.4636 13.6182C33.5834 13.7926 33.7532 13.9266 33.9506 14.0026L35.1953 14.4817C35.392 15.1413 35.6563 15.7789 35.984 16.3841L35.4423 17.604C35.3564 17.7973 35.3311 18.0122 35.3698 18.2201C35.4084 18.4281 35.5092 18.6195 35.6588 18.7691L37.6703 20.7806C37.8199 20.9302 38.0113 21.031 38.2193 21.0696C38.4273 21.1082 38.6421 21.0829 38.8354 20.9971L40.0547 20.4554C40.6602 20.7833 41.298 21.0477 41.9579 21.2444L42.4368 22.4887C42.5128 22.6862 42.6469 22.8559 42.8213 22.9757C42.9957 23.0954 43.2023 23.1595 43.4138 23.1595H46.2583C46.4699 23.1595 46.6765 23.0954 46.8509 22.9757C47.0253 22.8559 47.1593 22.6862 47.2353 22.4887L47.7144 21.244C48.374 21.0472 49.0116 20.7829 49.617 20.4552L50.8368 20.9971C51.0302 21.083 51.245 21.1083 51.453 21.0697C51.661 21.031 51.8524 20.9303 52.002 20.7806L54.0134 18.7692C54.163 18.6196 54.2638 18.4282 54.3024 18.2202C54.341 18.0122 54.3158 17.7974 54.2299 17.604L53.6884 16.3848C54.0162 15.7793 54.2806 15.1415 54.4773 14.4816L55.7215 14.0026C55.919 13.9267 56.0888 13.7926 56.2085 13.6182C56.3283 13.4438 56.3924 13.2372 56.3923 13.0256V12.6502H58.415V40.8056H6.58529V12.6502H24.9443V28.0725C24.9443 28.2562 24.9926 28.4368 25.0846 28.5959ZM27.8044 29.1194H29.7626L28.7835 30.8152L27.8044 29.1194ZM35.2122 8.67208C35.2068 8.68988 35.2003 8.70715 35.1949 8.72495L33.9507 9.20389C33.7533 9.27986 33.5835 9.41389 33.4637 9.5883C33.344 9.76271 33.2799 9.96932 33.2799 10.1809V10.5563H32.6228V8.67208H35.2122ZM28.3181 3.15073H29.249C29.9548 3.15073 30.529 3.72507 30.529 4.43079V27.0256H27.0381V4.43079C27.0381 3.72494 27.6123 3.15073 28.3181 3.15073ZM52.4751 60.6649V62.8594H12.5255V60.6649C12.5255 59.4754 13.9039 58.4704 15.5354 58.4704H49.4652C51.0967 58.4705 52.4751 59.4755 52.4751 60.6649ZM41.1773 56.3767H23.8231V50.9126H41.1773V56.3767ZM62.3933 45.1087C62.3933 47.1545 60.7289 48.8189 58.683 48.8189H6.31755C4.27182 48.8189 2.60742 47.1545 2.60742 45.1087V12.3825C2.60742 10.3366 4.27182 8.67208 6.31755 8.67208H24.9445V10.5563H6.1982C5.25719 10.5563 4.49154 11.322 4.49154 12.2629V41.8525C4.49154 42.1302 4.60183 42.3964 4.79816 42.5928C4.99448 42.7891 5.26076 42.8994 5.53841 42.8994H59.462C59.7397 42.8994 60.0059 42.7891 60.2023 42.5928C60.3986 42.3964 60.5089 42.1302 60.5089 41.8525V12.263C60.5089 11.3221 59.7432 10.5565 58.8022 10.5565H56.3926V10.1811C56.3926 9.96959 56.3285 9.763 56.2088 9.58859C56.089 9.41419 55.9192 9.28015 55.7218 9.20415L54.4772 8.72508C54.4718 8.70728 54.4653 8.68988 54.4599 8.67221H58.6829C60.7287 8.67221 62.3931 10.3367 62.3931 12.3826V45.1087H62.3933ZM44.8363 17.6111C48.149 17.6111 50.844 14.9159 50.844 11.6033C50.844 8.29075 48.149 5.59557 44.8363 5.59557C41.5236 5.59557 38.8284 8.29075 38.8284 11.6033C38.8284 14.9159 41.5236 17.6111 44.8363 17.6111ZM44.8363 7.68919C46.9945 7.68919 48.7503 9.44506 48.7503 11.6032C48.7503 13.7613 46.9945 15.5172 44.8363 15.5172C42.678 15.5172 40.9221 13.7613 40.9221 11.6032C40.9221 9.44506 42.678 7.68919 44.8363 7.68919ZM43.1156 37.1187L45.8116 27.0574C45.8834 26.7892 46.0589 26.5606 46.2993 26.4217C46.5398 26.2829 46.8255 26.2453 47.0937 26.3172C47.3619 26.389 47.5906 26.5645 47.7294 26.8049C47.8682 27.0454 47.9058 27.3311 47.834 27.5993L45.138 37.6606C45.0784 37.8831 44.947 38.0797 44.7643 38.2201C44.5816 38.3604 44.3578 38.4366 44.1274 38.4368C43.9668 38.4369 43.8082 38.4 43.6642 38.329C43.5201 38.2579 43.3942 38.1547 43.2964 38.0273C43.1986 37.8999 43.1314 37.7516 43.1001 37.5941C43.0687 37.4365 43.074 37.2739 43.1156 37.1187ZM36.0483 32.3591C36.0483 32.2066 36.0816 32.0559 36.1459 31.9177C36.2102 31.7794 36.3039 31.6568 36.4206 31.5586L40.8133 27.8568C40.9184 27.7682 41.0399 27.7012 41.1709 27.6595C41.302 27.6179 41.4399 27.6025 41.5769 27.6142C41.7139 27.6258 41.8473 27.6644 41.9693 27.7277C42.0914 27.7909 42.1999 27.8776 42.2884 27.9827C42.4673 28.195 42.5546 28.4697 42.531 28.7463C42.5073 29.0229 42.3748 29.2789 42.1625 29.4578L38.7198 32.3591L42.1625 35.2602C42.3268 35.3985 42.4445 35.584 42.4997 35.7915C42.555 35.999 42.5451 36.2185 42.4713 36.4202C42.3976 36.6218 42.2637 36.796 42.0877 36.9189C41.9116 37.0419 41.702 37.1077 41.4873 37.1076C41.2491 37.1076 41.0097 37.0267 40.8133 36.8611L36.4206 33.1595C36.3039 33.0613 36.2102 32.9387 36.1459 32.8005C36.0816 32.6622 36.0483 32.5116 36.0483 32.3591ZM48.7869 35.2602L52.2297 32.3591L48.7869 29.4578C48.6818 29.3692 48.5951 29.2608 48.5319 29.1387C48.4687 29.0166 48.4301 28.8833 48.4184 28.7463C48.4068 28.6094 48.4222 28.4714 48.4638 28.3404C48.5054 28.2094 48.5724 28.0878 48.661 27.9827C48.7496 27.8776 48.8581 27.791 48.9801 27.7277C49.1022 27.6645 49.2356 27.626 49.3725 27.6143C49.5095 27.6026 49.6475 27.618 49.7785 27.6596C49.9095 27.7012 50.0311 27.7682 50.1362 27.8568L54.5289 31.5586C54.6455 31.6569 54.7392 31.7794 54.8035 31.9177C54.8678 32.0559 54.9011 32.2066 54.9011 32.3591C54.9011 32.5115 54.8678 32.6622 54.8035 32.8004C54.7392 32.9387 54.6455 33.0613 54.5289 33.1595L50.1362 36.8611C49.9478 37.0205 49.7089 37.1078 49.4621 37.1076C49.2475 37.1077 49.0379 37.0418 48.8619 36.9188C48.686 36.7958 48.552 36.6217 48.4783 36.4201C48.4046 36.2184 48.3947 35.999 48.4499 35.7915C48.5051 35.5841 48.6228 35.3986 48.7869 35.2602ZM10.1389 36.1183H31.9343C32.212 36.1183 32.4782 36.2286 32.6746 36.4249C32.8709 36.6212 32.9812 36.8875 32.9812 37.1651C32.9812 37.4428 32.8709 37.7091 32.6746 37.9054C32.4782 38.1017 32.212 38.212 31.9343 38.212H10.1389C9.86125 38.212 9.59498 38.1017 9.39865 37.9054C9.20232 37.7091 9.09203 37.4428 9.09203 37.1651C9.09203 36.8875 9.20232 36.6212 9.39865 36.4249C9.59498 36.2286 9.86125 36.1183 10.1389 36.1183ZM9.01757 28.7217C9.01757 28.444 9.12786 28.1778 9.32419 27.9814C9.52052 27.7851 9.78679 27.6748 10.0644 27.6748H21.3907C21.6684 27.6748 21.9346 27.7851 22.131 27.9814C22.3273 28.1778 22.4376 28.444 22.4376 28.7217C22.4376 28.9993 22.3273 29.2656 22.131 29.462C21.9346 29.6583 21.6684 29.7686 21.3907 29.7686H10.0644C9.78679 29.7686 9.52052 29.6583 9.32419 29.462C9.12786 29.2656 9.01757 28.9993 9.01757 28.7217ZM9.05473 32.9435C9.05473 32.6658 9.16503 32.3996 9.36135 32.2032C9.55768 32.0069 9.82396 31.8966 10.1016 31.8966H21.4279C21.7055 31.8966 21.9718 32.0069 22.1681 32.2032C22.3645 32.3996 22.4748 32.6658 22.4748 32.9435C22.4748 33.2211 22.3645 33.4874 22.1681 33.6837C21.9718 33.8801 21.7055 33.9904 21.4279 33.9904H10.1016C9.82396 33.9904 9.55768 33.8801 9.36135 33.6837C9.16503 33.4874 9.05473 33.2211 9.05473 32.9435ZM9.09203 16.0566C9.09203 15.779 9.20232 15.5127 9.39865 15.3164C9.59498 15.12 9.86125 15.0097 10.1389 15.0097H21.4652C21.7428 15.0097 22.0091 15.12 22.2054 15.3164C22.4018 15.5127 22.512 15.779 22.512 16.0566C22.512 16.3343 22.4018 16.6005 22.2054 16.7969C22.0091 16.9932 21.7428 17.1035 21.4652 17.1035H10.1389C9.86125 17.1035 9.59498 16.9932 9.39865 16.7969C9.20232 16.6005 9.09203 16.3343 9.09203 16.0566ZM9.05473 20.2784C9.05473 20.0007 9.16503 19.7345 9.36135 19.5381C9.55768 19.3418 9.82396 19.2315 10.1016 19.2315H21.4279C21.7055 19.2315 21.9718 19.3418 22.1681 19.5381C22.3645 19.7345 22.4748 20.0007 22.4748 20.2784C22.4748 20.556 22.3645 20.8223 22.1681 21.0186C21.9718 21.215 21.7055 21.3253 21.4279 21.3253H10.1016C9.82396 21.3253 9.55768 21.215 9.36135 21.0186C9.16503 20.8223 9.05473 20.556 9.05473 20.2784ZM9.01757 24.5C9.01757 24.2224 9.12786 23.9561 9.32419 23.7598C9.52052 23.5635 9.78679 23.4532 10.0644 23.4532H21.3907C21.6684 23.4532 21.9346 23.5635 22.131 23.7598C22.3273 23.9561 22.4376 24.2224 22.4376 24.5C22.4376 24.7777 22.3273 25.044 22.131 25.2403C21.9346 25.4366 21.6684 25.5469 21.3907 25.5469H10.0644C9.78679 25.5469 9.52052 25.4366 9.32419 25.2403C9.12786 25.044 9.01757 24.7777 9.01757 24.5Z" fill="#036CD3"/>
</svg>
