<svg width="67" height="67" viewBox="0 0 67 67" fill="none" xmlns="http://www.w3.org/2000/svg">
<g clip-path="url(#clip0_90_3313)">
<path d="M62.9846 22.1508C62.9609 22.0153 62.9106 21.8858 62.8368 21.7697C62.7629 21.6536 62.6669 21.5532 62.5542 21.4743C62.4415 21.3953 62.3144 21.3394 62.18 21.3096C62.0457 21.2798 61.9068 21.2768 61.7713 21.3008L56.6186 22.2084C56.483 22.2322 56.3534 22.2825 56.2372 22.3564C56.121 22.4303 56.0206 22.5264 55.9416 22.6392C55.8627 22.752 55.8067 22.8793 55.777 23.0138C55.7473 23.1482 55.7444 23.2872 55.7685 23.4228L55.9926 24.6905L53.0613 25.2025L51.2973 24.9324V9.42188C51.2973 8.31128 50.8561 7.24617 50.0708 6.46087C49.2855 5.67556 48.2204 5.23438 47.1098 5.23438H39.7817V3.14062C39.7817 2.30768 39.4508 1.50885 38.8618 0.919868C38.2729 0.330886 37.474 0 36.6411 0L30.3598 0C29.5269 0 28.7281 0.330886 28.1391 0.919868C27.5501 1.50885 27.2192 2.30768 27.2192 3.14062V5.23438H19.8911C18.7805 5.23438 17.7154 5.67556 16.9301 6.46087C16.1448 7.24617 15.7036 8.31128 15.7036 9.42188V24.9355L13.9323 25.2067L11.0094 24.6916L11.2324 23.4228C11.2565 23.2872 11.2536 23.1482 11.2239 23.0138C11.1942 22.8793 11.1383 22.752 11.0593 22.6392C10.9803 22.5264 10.8799 22.4303 10.7637 22.3564C10.6476 22.2825 10.5179 22.2322 10.3823 22.2084L5.23483 21.3008C5.09926 21.2767 4.96026 21.2796 4.82581 21.3093C4.69136 21.339 4.56408 21.3949 4.45128 21.4739C4.33847 21.5528 4.24235 21.6533 4.16843 21.7694C4.0945 21.8856 4.04421 22.0152 4.02045 22.1508L0.0161554 44.8293C-0.00794164 44.9649 -0.00505709 45.1038 0.0246438 45.2383C0.0543447 45.3728 0.110279 45.5 0.189242 45.6128C0.268205 45.7256 0.368646 45.8218 0.484812 45.8957C0.600979 45.9696 0.730588 46.0199 0.866218 46.0437L6.01998 46.9513C6.15548 46.9752 6.29436 46.9722 6.4287 46.9425C6.56303 46.9127 6.69018 46.8567 6.80286 46.7778C6.91555 46.6988 7.01157 46.5984 7.08543 46.4824C7.15929 46.3663 7.20954 46.2368 7.23331 46.1012L7.32858 45.5391L8.1933 45.6919C8.9903 47.4474 10.1498 49.0144 11.5956 50.2898C11.5402 51.235 11.8093 52.1709 12.3584 52.9423C12.9075 53.7137 13.7036 54.2745 14.6148 54.5317C14.1251 55.3451 13.9281 56.3015 14.0564 57.2423C14.1848 58.1831 14.6309 59.0517 15.3208 59.7041C16.0106 60.3565 16.9027 60.7536 17.8491 60.8294C18.7956 60.9052 19.7395 60.6553 20.5244 60.121C20.6285 60.8161 20.9078 61.4734 21.3361 62.0308C21.7643 62.5882 22.3274 63.0274 22.9722 63.3071C23.6171 63.5868 24.3225 63.6978 25.0221 63.6296C25.7217 63.5613 26.3924 63.3162 26.9711 62.9172C27.069 63.5583 27.3162 64.1675 27.6927 64.6957C28.0692 65.2238 28.5645 65.6562 29.1386 65.9579C29.7128 66.2596 30.3498 66.4222 30.9983 66.4326C31.6468 66.4431 32.2887 66.3011 32.8723 66.018V66.0243L33.2911 66.3028C33.7497 66.6064 34.2636 66.8167 34.8035 66.9217C35.3434 67.0267 35.8987 67.0242 36.4376 66.9146C36.9766 66.8049 37.4887 66.5902 37.9446 66.2826C38.4006 65.975 38.7915 65.5806 39.095 65.1219C39.5533 64.4241 39.7877 63.6031 39.767 62.7685C40.1067 62.861 40.4567 62.9096 40.8087 62.913C41.3619 62.9147 41.9099 62.8066 42.421 62.5949C42.9321 62.3832 43.3961 62.0722 43.7861 61.6798C44.1761 61.2875 44.4843 60.8217 44.6929 60.3093C44.9016 59.797 45.0064 59.2483 45.0014 58.6951C45.3347 58.7828 45.6776 58.8285 46.0221 58.8312C46.5746 58.8312 47.1216 58.7219 47.6317 58.5096C48.1417 58.2973 48.6047 57.9861 48.9939 57.594C49.3832 57.202 49.691 56.7367 49.8996 56.2252C50.1083 55.7136 50.2136 55.1658 50.2096 54.6134C50.8478 54.7797 51.5164 54.7916 52.1601 54.6481C52.8038 54.5045 53.4041 54.2097 53.9112 53.7881C54.4183 53.3664 54.8176 52.83 55.0762 52.2233C55.3347 51.6166 55.445 50.957 55.3979 50.2992C56.8451 49.0217 58.0048 47.4517 58.8003 45.693L59.6723 45.5443L59.7707 46.1012C59.7945 46.2369 59.8448 46.3665 59.9187 46.4826C59.9926 46.5988 60.0888 46.6992 60.2016 46.7782C60.3144 46.8572 60.4416 46.9131 60.5761 46.9428C60.7105 46.9725 60.8495 46.9754 60.9851 46.9513L66.1378 46.0437C66.2735 46.0199 66.4031 45.9696 66.5192 45.8957C66.6354 45.8218 66.7358 45.7256 66.8148 45.6128C66.8938 45.5 66.9497 45.3728 66.9794 45.2383C67.0091 45.1038 67.012 44.9649 66.9879 44.8293L62.9846 22.1508ZM29.313 3.14062C29.313 2.86298 29.4232 2.5967 29.6196 2.40037C29.8159 2.20405 30.0822 2.09375 30.3598 2.09375H36.6411C36.9187 2.09375 37.185 2.20405 37.3813 2.40037C37.5777 2.5967 37.688 2.86298 37.688 3.14062V5.23438H29.313V3.14062ZM17.7973 9.42188C17.7973 8.86658 18.0179 8.33402 18.4106 7.94137C18.8032 7.54872 19.3358 7.32812 19.8911 7.32812H47.1098C47.6651 7.32812 48.1977 7.54872 48.5903 7.94137C48.983 8.33402 49.2036 8.86658 49.2036 9.42188V12.5625C49.2036 13.3954 48.8727 14.1943 48.2837 14.7833C47.6947 15.3722 46.8959 15.7031 46.063 15.7031V14.6562C46.063 14.3786 45.9527 14.1123 45.7563 13.916C45.56 13.7197 45.2937 13.6094 45.0161 13.6094H40.8286C40.5509 13.6094 40.2846 13.7197 40.0883 13.916C39.892 14.1123 39.7817 14.3786 39.7817 14.6562V15.7031H27.2192V14.6562C27.2192 14.3786 27.1089 14.1123 26.9126 13.916C26.7163 13.7197 26.45 13.6094 26.1723 13.6094H21.9848C21.7072 13.6094 21.4409 13.7197 21.2446 13.916C21.0482 14.1123 20.938 14.3786 20.938 14.6562V15.7031C20.105 15.7031 19.3062 15.3722 18.7172 14.7833C18.1282 14.1943 17.7973 13.3954 17.7973 12.5625V9.42188ZM43.9692 15.7031V17.7969H41.8755V15.7031H43.9692ZM25.1255 15.7031V17.7969H23.0317V15.7031H25.1255ZM17.7973 16.7228C18.698 17.4156 19.8016 17.793 20.938 17.7969V18.8438C20.938 19.1214 21.0482 19.3877 21.2446 19.584C21.4409 19.7803 21.7072 19.8906 21.9848 19.8906H26.1723C26.45 19.8906 26.7163 19.7803 26.9126 19.584C27.1089 19.3877 27.2192 19.1214 27.2192 18.8438V17.7969H39.7817V18.8438C39.7817 19.1214 39.892 19.3877 40.0883 19.584C40.2846 19.7803 40.5509 19.8906 40.8286 19.8906H45.0161C45.2937 19.8906 45.56 19.7803 45.7563 19.584C45.9527 19.3877 46.063 19.1214 46.063 18.8438V17.7969C47.1993 17.793 48.3029 17.4156 49.2036 16.7228V24.612L41.2473 23.3956C39.5173 23.135 37.7488 23.3593 36.1386 24.0436L33.5005 25.1679L30.8697 24.0467C29.2569 23.3594 27.4844 23.1358 25.7515 23.4008L17.7973 24.6162V16.7228ZM5.35312 44.7089L2.26066 44.1624L5.89541 23.539L8.98892 24.0844L5.35312 44.7089ZM14.1647 51.8517C13.8079 51.4264 13.6346 50.8769 13.6829 50.3239C13.7312 49.7709 13.9971 49.2597 14.4222 48.9027L18.4328 45.5391C18.6434 45.3623 18.8868 45.2287 19.149 45.1459C19.4113 45.0632 19.6872 45.0329 19.9612 45.0568C20.2351 45.0808 20.5017 45.1584 20.7456 45.2853C20.9895 45.4123 21.2061 45.586 21.3829 45.7966C21.5597 46.0072 21.6933 46.2506 21.776 46.5128C21.8587 46.7751 21.889 47.051 21.8651 47.325C21.8412 47.5989 21.7635 47.8655 21.6366 48.1094C21.5097 48.3533 21.336 48.5699 21.1253 48.7467L17.1148 52.1124C16.904 52.289 16.6604 52.4224 16.3981 52.5049C16.1357 52.5874 15.8597 52.6174 15.5857 52.5932C15.3118 52.569 15.0453 52.4911 14.8014 52.3638C14.5576 52.2366 14.3412 52.0626 14.1647 51.8517ZM19.5477 58.268C19.337 58.4448 19.0936 58.5784 18.8313 58.6611C18.569 58.7438 18.2929 58.774 18.0189 58.7501C17.745 58.7261 17.4784 58.6484 17.2344 58.5214C16.9904 58.3944 16.7739 58.2206 16.5971 58.01C16.4203 57.7993 16.2867 57.5558 16.204 57.2935C16.1213 57.0312 16.0911 56.7552 16.115 56.4812C16.139 56.2072 16.2167 55.9406 16.3437 55.6967C16.4707 55.4527 16.6445 55.2361 16.8551 55.0593L21.6708 51.0215C22.0984 50.6868 22.6393 50.5314 23.1794 50.588C23.7195 50.6445 24.2165 50.9087 24.5655 51.3248C24.9144 51.7409 25.0881 52.2763 25.0498 52.818C25.0115 53.3597 24.7642 53.8653 24.3602 54.2281L19.5477 58.268ZM25.9912 61.0611C25.7805 61.2378 25.5371 61.3713 25.2748 61.454C25.0125 61.5366 24.7366 61.5668 24.4626 61.5428C24.1887 61.5188 23.9221 61.441 23.6782 61.314C23.4343 61.187 23.2179 61.0132 23.0411 60.8025C22.8644 60.5918 22.7309 60.3484 22.6482 60.0861C22.5656 59.8238 22.5354 59.5478 22.5594 59.2739C22.5834 59 22.6612 58.7334 22.7882 58.4895C22.9152 58.2456 23.089 58.0291 23.2997 57.8524L26.5084 55.1609C26.9346 54.8111 27.4815 54.6434 28.0306 54.6945C28.5796 54.7455 29.0863 55.011 29.4407 55.4334C29.7952 55.8558 29.9687 56.4009 29.9236 56.9505C29.8785 57.5 29.6184 58.0096 29.1999 58.3685L25.9912 61.0611ZM32.4337 63.8594C32.0076 64.2113 31.4597 64.3805 30.9094 64.3301C30.3591 64.2797 29.851 64.0138 29.4959 63.5904C29.1409 63.1669 28.9676 62.6203 29.0139 62.0696C29.0603 61.5189 29.3224 61.0089 29.7432 60.6507L32.9508 57.9592C33.1614 57.7824 33.4048 57.6488 33.6671 57.566C33.9293 57.4832 34.2053 57.453 34.4792 57.4769C34.7532 57.5008 35.0197 57.5784 35.2637 57.7054C35.5076 57.8323 35.7242 58.0061 35.9009 58.2167C36.0777 58.4274 36.2112 58.6708 36.2939 58.9331C36.3766 59.1954 36.4068 59.4714 36.3827 59.7453C36.3587 60.0193 36.281 60.2858 36.154 60.5297C36.0269 60.7736 35.8531 60.9901 35.6424 61.1668L32.4337 63.8594ZM37.3467 63.9703C37.0692 64.3933 36.6467 64.7002 36.1586 64.8333C35.6706 64.9663 35.1508 64.9163 34.697 64.6927L36.9886 62.7706C37.2054 62.5894 37.4032 62.3867 37.5791 62.1655C37.6782 62.4635 37.7087 62.78 37.6685 63.0914C37.6283 63.4028 37.5182 63.7011 37.3467 63.9641V63.9703ZM52.9859 51.7156C52.8342 51.945 52.6387 52.1422 52.4108 52.296C52.1828 52.4498 51.9268 52.5571 51.6573 52.612C51.3878 52.6668 51.1101 52.668 50.8402 52.6155C50.5703 52.563 50.3133 52.4579 50.084 52.3061L41.352 46.5305C41.2375 46.4475 41.1075 46.3886 40.9696 46.3573C40.8318 46.326 40.689 46.3229 40.5499 46.3482C40.4109 46.3736 40.2784 46.4269 40.1604 46.5048C40.0425 46.5828 39.9416 46.6838 39.8638 46.8018C39.7859 46.9198 39.7328 47.0524 39.7076 47.1915C39.6824 47.3306 39.6856 47.4733 39.7171 47.6111C39.7485 47.749 39.8076 47.879 39.8907 47.9933C39.9737 48.1077 40.0791 48.2041 40.2005 48.2766L47.1873 52.9007C47.6501 53.2076 47.9721 53.6859 48.0823 54.2302C48.1926 54.7745 48.0821 55.3403 47.7751 55.8032C47.4682 56.266 46.9899 56.5879 46.4456 56.6982C45.9013 56.8084 45.3355 56.6979 44.8727 56.391L37.8869 51.768C37.7704 51.69 37.6394 51.6366 37.5016 51.6109C37.2639 51.5661 37.018 51.605 36.8057 51.7211C36.5934 51.8371 36.4278 52.023 36.3372 52.2473C36.2465 52.4716 36.2363 52.7204 36.3083 52.9513C36.3803 53.1823 36.5301 53.3811 36.7322 53.5142L41.9665 56.9825C42.4266 57.2905 42.7459 57.7681 42.8546 58.311C42.9633 58.8538 42.8527 59.4176 42.5468 59.879C42.2409 60.3405 41.7647 60.662 41.2224 60.7733C40.6801 60.8845 40.1158 60.7765 39.6529 60.4727L38.4595 59.6834C38.4884 58.9153 38.3034 58.1542 37.9251 57.4851C37.5469 56.8159 36.9903 56.2649 36.3173 55.8935C35.6444 55.5221 34.8815 55.3448 34.1137 55.3814C33.3459 55.4181 32.6034 55.6672 31.9689 56.101C31.8877 55.5567 31.6984 55.0342 31.4122 54.5641C31.126 54.0941 30.7486 53.6861 30.3023 53.3642C29.856 53.0423 29.3497 52.8129 28.8134 52.6896C28.2771 52.5663 27.7215 52.5516 27.1794 52.6463C27.1977 51.6554 26.8569 50.6913 26.2197 49.9322C25.5826 49.1731 24.6923 48.6702 23.7132 48.5164C24.0196 47.652 24.0329 46.7108 23.7509 45.8382C23.469 44.9655 22.9076 44.21 22.1535 43.6882C21.3993 43.1665 20.4943 42.9075 19.5783 42.9514C18.6623 42.9953 17.7863 43.3396 17.0855 43.9311L13.0749 47.2968C12.7945 47.5382 12.548 47.8164 12.3421 48.1238C11.2943 47.0436 10.4685 45.7686 9.91122 44.3708C9.84521 44.2045 9.73772 44.058 9.59899 43.9451C9.46026 43.8322 9.29492 43.7567 9.11873 43.7259L7.69394 43.4746L10.643 26.7508L13.7355 27.2962C13.848 27.3156 13.9631 27.3156 14.0757 27.2962L26.0676 25.4705C27.4146 25.2639 28.7925 25.4379 30.0458 25.973L30.8246 26.3048L26.6445 28.0845C25.7053 28.4862 24.9045 29.1544 24.3413 30.0066L20.402 35.9455C19.9462 36.643 19.7844 37.4924 19.9519 38.3086C20.1193 39.1248 20.6024 39.8419 21.296 40.3036C22.4543 41.0668 23.8679 41.3397 25.227 41.0624C26.5861 40.7851 27.7799 39.9803 28.5466 38.8244L30.3441 36.1172L34.1663 35.3352C34.5782 36.6053 35.278 37.763 36.211 38.7182C37.144 39.6734 38.285 40.4001 39.5451 40.8417C39.9917 41.001 40.4498 41.1259 40.9155 41.2155L52.3945 48.8158C52.8572 49.1221 53.1794 49.5995 53.2904 50.1433C53.4013 50.687 53.2918 51.2526 52.9859 51.7156ZM57.8801 43.728C57.7032 43.7588 57.5372 43.8346 57.398 43.948C57.2589 44.0615 57.1512 44.2089 57.0855 44.376C56.5279 45.7803 55.6991 47.0609 54.6463 48.1447C54.3515 47.7206 53.9797 47.3555 53.5502 47.0685L44.6518 41.182C45.8081 40.9509 46.9096 40.501 47.8971 39.8566L49.5417 38.7783C49.7738 38.6256 49.9358 38.387 49.9919 38.1149C50.0481 37.8428 49.9938 37.5595 49.8411 37.3274C49.6884 37.0953 49.4498 36.9333 49.1776 36.8772C48.9055 36.821 48.6223 36.8753 48.3902 37.028L46.7508 38.1063C45.8026 38.729 44.7224 39.1224 43.5958 39.2552C42.4692 39.3881 41.3271 39.2567 40.2601 38.8715C39.2782 38.5294 38.3911 37.9599 37.6711 37.2096C36.9512 36.4593 36.4189 35.5494 36.1176 34.5542C36.0523 34.3392 35.9971 34.1212 35.9522 33.901C35.8956 33.63 35.7339 33.3926 35.5026 33.2405C35.2713 33.0885 34.9892 33.0342 34.718 33.0896L29.5035 34.1574C29.2322 34.2129 28.9939 34.3737 28.8408 34.6045L26.8109 37.6707C26.3506 38.3638 25.6346 38.8464 24.8195 39.0129C24.0043 39.1795 23.1564 39.0165 22.4612 38.5595C22.2292 38.405 22.0674 38.1653 22.011 37.8923C21.9545 37.6193 22.008 37.3351 22.1597 37.1012L26.097 31.1634C26.4346 30.6535 26.9138 30.2532 27.4757 30.0118L36.9614 25.9709C38.2154 25.4385 39.5924 25.2642 40.9395 25.4673L52.9263 27.2994C53.0383 27.3166 53.1524 27.3166 53.2644 27.2994L56.3632 26.7571L59.3059 43.4809L57.8801 43.728ZM61.6488 44.7068L58.013 24.0834L61.1065 23.5379L64.7413 44.1614L61.6488 44.7068Z" fill="#036CD3"/>
</g>
<defs>
<clipPath id="clip0_90_3313">
<rect width="67" height="67" fill="white"/>
</clipPath>
</defs>
</svg>
