<svg width="120" height="120" viewBox="0 0 120 120" fill="none" xmlns="http://www.w3.org/2000/svg">
<path d="M109.091 93.2727H10.9093C6.00018 93.2727 1.81836 89.2727 1.81836 84.1818V21.0909C1.81836 16.1818 5.81836 12 10.9093 12H24.182C25.2729 12 26.0002 12.7273 26.0002 13.8182C26.0002 14.9091 25.2729 15.6364 24.182 15.6364H10.9093C8.00018 15.6364 5.45472 18 5.45472 21.0909V84.1818C5.45472 87.0909 7.81836 89.6364 10.9093 89.6364H109.091C112 89.6364 114.546 87.2727 114.546 84.1818V21.0909C114.546 18.1818 112.182 15.6364 109.091 15.6364C108 15.6364 107.273 14.9091 107.273 13.8182C107.273 12.7273 108 12 109.091 12C114 12 118.182 16 118.182 21.0909V84.1818C118.182 89.2727 114.182 93.2727 109.091 93.2727Z" fill="#77B3EE"/>
<path d="M107.274 82.3636H12.7283C11.6374 82.3636 10.9102 81.6363 10.9102 80.5454V23.0909C10.9102 22 11.6374 21.2727 12.7283 21.2727H22.1829C23.2738 21.2727 24.0011 22 24.0011 23.0909C24.0011 24.1818 23.2738 24.9091 22.1829 24.9091H14.5465V78.7272H105.456V24.9091H99.8193C98.7283 24.9091 98.0011 24.1818 98.0011 23.0909C98.0011 22 98.7283 21.2727 99.8193 21.2727H107.274C108.365 21.2727 109.092 22 109.092 23.0909V80.5454C109.092 81.4545 108.183 82.3636 107.274 82.3636ZM76.0011 107.455H44.0011C43.4556 107.455 42.9102 107.273 42.5465 106.727C42.1829 106.364 42.0011 105.818 42.1829 105.273L45.4556 91.0909C45.6374 90.1818 46.3647 89.6363 47.2738 89.6363H72.7283C73.6374 89.6363 74.3647 90.1818 74.5465 91.0909L77.8192 105.273C78.0011 105.818 77.8192 106.364 77.4556 106.727C77.092 107.091 76.5465 107.455 76.0011 107.455ZM46.3647 103.818H73.8192L71.4556 93.2727H48.7283L46.3647 103.818Z" fill="#77B3EE"/>
<path d="M84.9087 117.818H35.0906C34.3633 117.818 33.8178 117.454 33.4542 116.727C33.0906 116 33.2724 115.273 33.8178 114.727L42.7269 104.363C43.0906 104 43.636 103.818 44.1815 103.818H76.1815C76.7269 103.818 77.2724 104 77.636 104.363L86.5451 114.727C87.0906 115.273 87.0906 116 86.9087 116.727C86.3633 117.273 85.636 117.818 84.9087 117.818ZM39.0906 114.182H81.0906L75.2724 107.454H44.9087L39.0906 114.182ZM24.1815 82.3635C23.0906 82.3635 22.3633 81.6362 22.3633 80.5453V18.7271C22.3633 17.6362 23.0906 16.9089 24.1815 16.9089C25.2724 16.9089 25.9996 17.6362 25.9996 18.7271V80.3635C25.9996 81.4544 25.0906 82.3635 24.1815 82.3635ZM95.8178 82.3635C94.7269 82.3635 93.9997 81.6362 93.9997 80.5453V26.9089C93.9997 25.818 94.7269 25.0908 95.8178 25.0908C96.9087 25.0908 97.636 25.818 97.636 26.9089V80.3635C97.636 81.4544 96.9087 82.3635 95.8178 82.3635Z" fill="#77B3EE"/>
<path d="M89.9996 20.5453H24.1815C23.0906 20.5453 22.3633 19.818 22.3633 18.7271V11.2725C22.3633 6.18164 26.3633 2.18164 31.4542 2.18164H88.5451C93.636 2.18164 97.636 6.18164 97.636 11.2725V12.9089C97.636 13.9998 96.9087 14.7271 95.8178 14.7271C94.7269 14.7271 93.9997 13.9998 93.9997 12.9089V11.2725C93.9997 8.18164 91.636 5.818 88.5451 5.818H31.4542C28.3633 5.818 25.9996 8.18164 25.9996 11.2725V16.9089H89.9996C91.0906 16.9089 91.8178 17.6362 91.8178 18.7271C91.8178 19.818 90.9087 20.5453 89.9996 20.5453Z" fill="#77B3EE"/>
<path d="M35.6374 13.2726H32.7283C31.6374 13.2726 30.9102 12.5453 30.9102 11.4544C30.9102 10.3635 31.6374 9.63623 32.7283 9.63623H35.6374C36.7283 9.63623 37.4556 10.3635 37.4556 11.4544C37.4556 12.5453 36.7283 13.2726 35.6374 13.2726ZM44.5465 13.2726H41.6374C40.5465 13.2726 39.8192 12.5453 39.8192 11.4544C39.8192 10.3635 40.5465 9.63623 41.6374 9.63623H44.5465C45.6374 9.63623 46.3647 10.3635 46.3647 11.4544C46.3647 12.5453 45.4556 13.2726 44.5465 13.2726ZM53.2738 13.2726H50.3647C49.2738 13.2726 48.5465 12.5453 48.5465 11.4544C48.5465 10.3635 49.2738 9.63623 50.3647 9.63623H53.2738C54.3647 9.63623 55.092 10.3635 55.092 11.4544C55.092 12.5453 54.1829 13.2726 53.2738 13.2726ZM66.3647 51.4544C65.8192 51.4544 65.4556 51.2726 65.092 50.909C64.5465 50.3635 64.3647 49.8181 64.5465 49.0908L67.2738 39.6362C67.6374 38.7271 68.5465 38.1817 69.4556 38.3635C70.3647 38.7271 70.9102 39.6362 70.7283 40.5453L68.9102 46.909L75.2738 45.0908C76.1829 44.7271 77.2738 45.4544 77.4556 46.3635C77.8192 47.2726 77.092 48.3635 76.1829 48.5453L66.7283 51.2726C66.5465 51.4544 66.3647 51.4544 66.3647 51.4544Z" fill="#77B3EE"/>
<path d="M75.8189 48.7272C75.2734 48.7272 74.9098 48.5453 74.5462 48.1817L67.8189 41.4544C67.0916 40.7272 67.0916 39.6363 67.8189 38.909L103.819 2.72716C104.364 2.18171 104.91 1.99989 105.637 2.18171C109.819 3.27262 112.546 5.99989 113.637 10.1817C113.819 10.7272 113.637 11.4544 113.092 11.9999L77.0916 48.1817C76.728 48.5453 76.3644 48.7272 75.8189 48.7272ZM71.6371 40.1817L75.8189 44.3635L109.819 10.3635C109.092 8.36353 107.637 6.90898 105.637 6.18171L71.6371 40.1817Z" fill="#77B3EE"/>
<path d="M108.181 16.3636C107.636 16.3636 107.272 16.1818 106.909 15.8182L100.181 9.09091C99.4542 8.36364 99.4542 7.27273 100.181 6.54545C100.909 5.81818 102 5.81818 102.727 6.54545L109.454 13.2727C110.181 14 110.181 15.0909 109.454 15.8182C109.091 16.1818 108.727 16.3636 108.181 16.3636ZM37.636 39.0909C37.0906 39.0909 36.7269 38.9091 36.3633 38.5455L32.9087 35.0909C32.1815 34.3636 32.1815 33.2727 32.9087 32.5455C33.636 31.8182 34.7269 31.8182 35.4542 32.5455L37.636 34.7273L45.0906 27.2727C45.8178 26.5455 46.9087 26.5455 47.636 27.2727C48.3633 28 48.3633 29.0909 47.636 29.8182L38.9087 38.5455C38.5451 38.9091 38.1815 39.0909 37.636 39.0909ZM36.3633 55.2727C35.8178 55.2727 35.4542 55.0909 35.0906 54.7273C34.3633 54 34.3633 52.9091 35.0906 52.1818L42.9087 44.3636C43.636 43.6364 44.7269 43.6364 45.4542 44.3636C46.1815 45.0909 46.1815 46.1818 45.4542 46.9091L37.636 54.7273C37.2724 55.0909 36.9087 55.2727 36.3633 55.2727Z" fill="#77B3EE"/>
<path d="M44.1815 55.2726C43.636 55.2726 43.2724 55.0908 42.9087 54.7272L35.0906 46.909C34.3633 46.1817 34.3633 45.0908 35.0906 44.3635C35.8178 43.6363 36.9087 43.6363 37.636 44.3635L45.4542 52.1817C46.1815 52.909 46.1815 53.9999 45.4542 54.7272C45.0906 55.0908 44.7269 55.2726 44.1815 55.2726ZM37.636 72.3635C37.0906 72.3635 36.7269 72.1817 36.3633 71.8181L32.9087 68.3635C32.1815 67.6363 32.1815 66.5454 32.9087 65.8181C33.636 65.0908 34.7269 65.0908 35.4542 65.8181L37.636 67.9999L45.0906 60.5454C45.8178 59.8181 46.9087 59.8181 47.636 60.5454C48.3633 61.2726 48.3633 62.3635 47.636 63.0908L38.9087 71.8181C38.5451 72.1817 38.1815 72.3635 37.636 72.3635ZM69.636 30.7272H54.7269C53.636 30.7272 52.9087 29.9999 52.9087 28.909C52.9087 27.8181 53.636 27.0908 54.7269 27.0908H69.636C70.7269 27.0908 71.4542 27.8181 71.4542 28.909C71.4542 29.9999 70.7269 30.7272 69.636 30.7272ZM62.7269 38.909H54.9087C53.8178 38.909 53.0906 38.1817 53.0906 37.0908C53.0906 35.9999 53.8178 35.2726 54.9087 35.2726H62.7269C63.8178 35.2726 64.5451 35.9999 64.5451 37.0908C64.5451 38.1817 63.8178 38.909 62.7269 38.909ZM58.5451 47.2726H54.9087C53.8178 47.2726 53.0906 46.5454 53.0906 45.4545C53.0906 44.3635 53.8178 43.6363 54.9087 43.6363H58.5451C59.636 43.6363 60.3633 44.3635 60.3633 45.4545C60.3633 46.5454 59.636 47.2726 58.5451 47.2726ZM60.7269 55.4545H54.9087C53.8178 55.4545 53.0906 54.7272 53.0906 53.6363C53.0906 52.5454 53.8178 51.8181 54.9087 51.8181H60.7269C61.8178 51.8181 62.5451 52.5454 62.5451 53.6363C62.5451 54.7272 61.636 55.4545 60.7269 55.4545ZM63.636 63.9999H54.9087C53.8178 63.9999 53.0906 63.2726 53.0906 62.1817C53.0906 61.0908 53.8178 60.3635 54.9087 60.3635H63.636C64.7269 60.3635 65.4542 61.0908 65.4542 62.1817C65.4542 63.2726 64.5451 63.9999 63.636 63.9999ZM86.3633 71.9999H54.9087C53.8178 71.9999 53.0906 71.2726 53.0906 70.1817C53.0906 69.0908 53.8178 68.3635 54.9087 68.3635H86.3633C87.4542 68.3635 88.1815 69.0908 88.1815 70.1817C88.1815 71.2726 87.4542 71.9999 86.3633 71.9999Z" fill="#77B3EE"/>
<path d="M109.091 93.2727H10.9093C6.00018 93.2727 1.81836 89.2727 1.81836 84.1818V21.0909C1.81836 16.1818 5.81836 12 10.9093 12H24.182C25.2729 12 26.0002 12.7273 26.0002 13.8182C26.0002 14.9091 25.2729 15.6364 24.182 15.6364H10.9093C8.00018 15.6364 5.45472 18 5.45472 21.0909V84.1818C5.45472 87.0909 7.81836 89.6364 10.9093 89.6364H109.091C112 89.6364 114.546 87.2727 114.546 84.1818V21.0909C114.546 18.1818 112.182 15.6364 109.091 15.6364C108 15.6364 107.273 14.9091 107.273 13.8182C107.273 12.7273 108 12 109.091 12C114 12 118.182 16 118.182 21.0909V84.1818C118.182 89.2727 114.182 93.2727 109.091 93.2727Z" fill="#77B3EE"/>
<path d="M107.274 82.3636H12.7283C11.6374 82.3636 10.9102 81.6363 10.9102 80.5454V23.0909C10.9102 22 11.6374 21.2727 12.7283 21.2727H22.1829C23.2738 21.2727 24.0011 22 24.0011 23.0909C24.0011 24.1818 23.2738 24.9091 22.1829 24.9091H14.5465V78.7272H105.456V24.9091H99.8193C98.7283 24.9091 98.0011 24.1818 98.0011 23.0909C98.0011 22 98.7283 21.2727 99.8193 21.2727H107.274C108.365 21.2727 109.092 22 109.092 23.0909V80.5454C109.092 81.4545 108.183 82.3636 107.274 82.3636ZM76.0011 107.455H44.0011C43.4556 107.455 42.9102 107.273 42.5465 106.727C42.1829 106.364 42.0011 105.818 42.1829 105.273L45.4556 91.0909C45.6374 90.1818 46.3647 89.6363 47.2738 89.6363H72.7283C73.6374 89.6363 74.3647 90.1818 74.5465 91.0909L77.8192 105.273C78.0011 105.818 77.8192 106.364 77.4556 106.727C77.092 107.091 76.5465 107.455 76.0011 107.455ZM46.3647 103.818H73.8192L71.4556 93.2727H48.7283L46.3647 103.818Z" fill="#77B3EE"/>
<path d="M84.9087 117.818H35.0906C34.3633 117.818 33.8178 117.454 33.4542 116.727C33.0906 116 33.2724 115.273 33.8178 114.727L42.7269 104.363C43.0906 104 43.636 103.818 44.1815 103.818H76.1815C76.7269 103.818 77.2724 104 77.636 104.363L86.5451 114.727C87.0906 115.273 87.0906 116 86.9087 116.727C86.3633 117.273 85.636 117.818 84.9087 117.818ZM39.0906 114.182H81.0906L75.2724 107.454H44.9087L39.0906 114.182ZM24.1815 82.3635C23.0906 82.3635 22.3633 81.6362 22.3633 80.5453V18.7271C22.3633 17.6362 23.0906 16.9089 24.1815 16.9089C25.2724 16.9089 25.9996 17.6362 25.9996 18.7271V80.3635C25.9996 81.4544 25.0906 82.3635 24.1815 82.3635ZM95.8178 82.3635C94.7269 82.3635 93.9997 81.6362 93.9997 80.5453V26.9089C93.9997 25.818 94.7269 25.0908 95.8178 25.0908C96.9087 25.0908 97.636 25.818 97.636 26.9089V80.3635C97.636 81.4544 96.9087 82.3635 95.8178 82.3635Z" fill="#77B3EE"/>
<path d="M89.9996 20.5453H24.1815C23.0906 20.5453 22.3633 19.818 22.3633 18.7271V11.2725C22.3633 6.18164 26.3633 2.18164 31.4542 2.18164H88.5451C93.636 2.18164 97.636 6.18164 97.636 11.2725V12.9089C97.636 13.9998 96.9087 14.7271 95.8178 14.7271C94.7269 14.7271 93.9997 13.9998 93.9997 12.9089V11.2725C93.9997 8.18164 91.636 5.818 88.5451 5.818H31.4542C28.3633 5.818 25.9996 8.18164 25.9996 11.2725V16.9089H89.9996C91.0906 16.9089 91.8178 17.6362 91.8178 18.7271C91.8178 19.818 90.9087 20.5453 89.9996 20.5453Z" fill="#77B3EE"/>
<path d="M35.6374 13.2726H32.7283C31.6374 13.2726 30.9102 12.5453 30.9102 11.4544C30.9102 10.3635 31.6374 9.63623 32.7283 9.63623H35.6374C36.7283 9.63623 37.4556 10.3635 37.4556 11.4544C37.4556 12.5453 36.7283 13.2726 35.6374 13.2726ZM44.5465 13.2726H41.6374C40.5465 13.2726 39.8192 12.5453 39.8192 11.4544C39.8192 10.3635 40.5465 9.63623 41.6374 9.63623H44.5465C45.6374 9.63623 46.3647 10.3635 46.3647 11.4544C46.3647 12.5453 45.4556 13.2726 44.5465 13.2726ZM53.2738 13.2726H50.3647C49.2738 13.2726 48.5465 12.5453 48.5465 11.4544C48.5465 10.3635 49.2738 9.63623 50.3647 9.63623H53.2738C54.3647 9.63623 55.092 10.3635 55.092 11.4544C55.092 12.5453 54.1829 13.2726 53.2738 13.2726ZM66.3647 51.4544C65.8192 51.4544 65.4556 51.2726 65.092 50.909C64.5465 50.3635 64.3647 49.8181 64.5465 49.0908L67.2738 39.6362C67.6374 38.7271 68.5465 38.1817 69.4556 38.3635C70.3647 38.7271 70.9102 39.6362 70.7283 40.5453L68.9102 46.909L75.2738 45.0908C76.1829 44.7271 77.2738 45.4544 77.4556 46.3635C77.8192 47.2726 77.092 48.3635 76.1829 48.5453L66.7283 51.2726C66.5465 51.4544 66.3647 51.4544 66.3647 51.4544Z" fill="#77B3EE"/>
<path d="M75.8189 48.7272C75.2734 48.7272 74.9098 48.5453 74.5462 48.1817L67.8189 41.4544C67.0916 40.7272 67.0916 39.6363 67.8189 38.909L103.819 2.72716C104.364 2.18171 104.91 1.99989 105.637 2.18171C109.819 3.27262 112.546 5.99989 113.637 10.1817C113.819 10.7272 113.637 11.4544 113.092 11.9999L77.0916 48.1817C76.728 48.5453 76.3644 48.7272 75.8189 48.7272ZM71.6371 40.1817L75.8189 44.3635L109.819 10.3635C109.092 8.36353 107.637 6.90898 105.637 6.18171L71.6371 40.1817Z" fill="#77B3EE"/>
<path d="M108.181 16.3636C107.636 16.3636 107.272 16.1818 106.909 15.8182L100.181 9.09091C99.4542 8.36364 99.4542 7.27273 100.181 6.54545C100.909 5.81818 102 5.81818 102.727 6.54545L109.454 13.2727C110.181 14 110.181 15.0909 109.454 15.8182C109.091 16.1818 108.727 16.3636 108.181 16.3636ZM37.636 39.0909C37.0906 39.0909 36.7269 38.9091 36.3633 38.5455L32.9087 35.0909C32.1815 34.3636 32.1815 33.2727 32.9087 32.5455C33.636 31.8182 34.7269 31.8182 35.4542 32.5455L37.636 34.7273L45.0906 27.2727C45.8178 26.5455 46.9087 26.5455 47.636 27.2727C48.3633 28 48.3633 29.0909 47.636 29.8182L38.9087 38.5455C38.5451 38.9091 38.1815 39.0909 37.636 39.0909ZM36.3633 55.2727C35.8178 55.2727 35.4542 55.0909 35.0906 54.7273C34.3633 54 34.3633 52.9091 35.0906 52.1818L42.9087 44.3636C43.636 43.6364 44.7269 43.6364 45.4542 44.3636C46.1815 45.0909 46.1815 46.1818 45.4542 46.9091L37.636 54.7273C37.2724 55.0909 36.9087 55.2727 36.3633 55.2727Z" fill="#77B3EE"/>
<path d="M44.1815 55.2726C43.636 55.2726 43.2724 55.0908 42.9087 54.7272L35.0906 46.909C34.3633 46.1817 34.3633 45.0908 35.0906 44.3635C35.8178 43.6363 36.9087 43.6363 37.636 44.3635L45.4542 52.1817C46.1815 52.909 46.1815 53.9999 45.4542 54.7272C45.0906 55.0908 44.7269 55.2726 44.1815 55.2726ZM37.636 72.3635C37.0906 72.3635 36.7269 72.1817 36.3633 71.8181L32.9087 68.3635C32.1815 67.6363 32.1815 66.5454 32.9087 65.8181C33.636 65.0908 34.7269 65.0908 35.4542 65.8181L37.636 67.9999L45.0906 60.5454C45.8178 59.8181 46.9087 59.8181 47.636 60.5454C48.3633 61.2726 48.3633 62.3635 47.636 63.0908L38.9087 71.8181C38.5451 72.1817 38.1815 72.3635 37.636 72.3635ZM69.636 30.7272H54.7269C53.636 30.7272 52.9087 29.9999 52.9087 28.909C52.9087 27.8181 53.636 27.0908 54.7269 27.0908H69.636C70.7269 27.0908 71.4542 27.8181 71.4542 28.909C71.4542 29.9999 70.7269 30.7272 69.636 30.7272ZM62.7269 38.909H54.9087C53.8178 38.909 53.0906 38.1817 53.0906 37.0908C53.0906 35.9999 53.8178 35.2726 54.9087 35.2726H62.7269C63.8178 35.2726 64.5451 35.9999 64.5451 37.0908C64.5451 38.1817 63.8178 38.909 62.7269 38.909ZM58.5451 47.2726H54.9087C53.8178 47.2726 53.0906 46.5454 53.0906 45.4545C53.0906 44.3635 53.8178 43.6363 54.9087 43.6363H58.5451C59.636 43.6363 60.3633 44.3635 60.3633 45.4545C60.3633 46.5454 59.636 47.2726 58.5451 47.2726ZM60.7269 55.4545H54.9087C53.8178 55.4545 53.0906 54.7272 53.0906 53.6363C53.0906 52.5454 53.8178 51.8181 54.9087 51.8181H60.7269C61.8178 51.8181 62.5451 52.5454 62.5451 53.6363C62.5451 54.7272 61.636 55.4545 60.7269 55.4545ZM63.636 63.9999H54.9087C53.8178 63.9999 53.0906 63.2726 53.0906 62.1817C53.0906 61.0908 53.8178 60.3635 54.9087 60.3635H63.636C64.7269 60.3635 65.4542 61.0908 65.4542 62.1817C65.4542 63.2726 64.5451 63.9999 63.636 63.9999ZM86.3633 71.9999H54.9087C53.8178 71.9999 53.0906 71.2726 53.0906 70.1817C53.0906 69.0908 53.8178 68.3635 54.9087 68.3635H86.3633C87.4542 68.3635 88.1815 69.0908 88.1815 70.1817C88.1815 71.2726 87.4542 71.9999 86.3633 71.9999Z" fill="#77B3EE"/>
</svg>
