<svg width="67" height="67" viewBox="0 0 67 67" fill="none" xmlns="http://www.w3.org/2000/svg">
<circle cx="45" cy="21" r="21" fill="#036CD3"/>
<circle cx="45" cy="21" r="21" fill="#036CD3"/>
<path d="M27.9903 36.6371H38.1615C38.4044 36.6371 38.6374 36.5406 38.8092 36.3689C38.981 36.1971 39.0775 35.9641 39.0775 35.7211V31.4808C39.0775 31.2378 38.981 31.0048 38.8092 30.833C38.6374 30.6613 38.4044 30.5647 38.1615 30.5647H27.9903C27.7474 30.5647 27.5144 30.6613 27.3426 30.833C27.1708 31.0048 27.0743 31.2378 27.0743 31.4808V35.7211C27.0743 35.9641 27.1708 36.1971 27.3426 36.3689C27.5144 36.5406 27.7474 36.6371 27.9903 36.6371ZM28.9063 32.3968H37.2455V34.8051H28.9063V32.3968ZM50.6745 57.5893H55.3602C55.6031 57.5893 55.8361 57.4928 56.0079 57.321C56.1797 57.1492 56.2762 56.9162 56.2762 56.6733V51.1845C56.2762 50.9416 56.1797 50.7086 56.0079 50.5368C55.8361 50.365 55.6031 50.2685 55.3602 50.2685H50.6745C50.4316 50.2685 50.1986 50.365 50.0268 50.5368C49.855 50.7086 49.7585 50.9416 49.7585 51.1845V56.6733C49.7585 56.9162 49.855 57.1492 50.0268 57.321C50.1986 57.4928 50.4316 57.5893 50.6745 57.5893ZM51.5905 52.1005H54.4442V55.7573H51.5905V52.1005ZM15.5992 50.5311H18.5021C18.745 50.5311 18.978 50.4346 19.1498 50.2628C19.3216 50.0911 19.4181 49.8581 19.4181 49.6151V41.9953C19.4181 41.7524 19.3216 41.5194 19.1498 41.3476C18.978 41.1758 18.745 41.0793 18.5021 41.0793H15.5992C15.3563 41.0793 15.1233 41.1758 14.9515 41.3476C14.7797 41.5194 14.6832 41.7524 14.6832 41.9953V49.6151C14.6832 49.8581 14.7797 50.0911 14.9515 50.2628C15.1233 50.4346 15.3563 50.5311 15.5992 50.5311ZM16.5152 42.9113H17.5861V48.6991H16.5152V42.9113ZM65.5605 59.9814H63.1912V46.9605C63.1912 46.7176 63.0947 46.4846 62.9229 46.3128C62.7511 46.141 62.5181 46.0445 62.2752 46.0445H59.7242L58.4847 27.095C59.2198 26.8792 59.7584 26.1998 59.7584 25.3959V22.5216C59.7584 21.5447 58.9637 20.75 57.9867 20.75H49.8012C48.8243 20.75 48.0294 21.5447 48.0294 22.5216V25.3959C48.0294 26.1998 48.5681 26.8792 49.3031 27.0951L48.0635 46.0445H44.6754V25.5965C44.6753 25.3536 44.5787 25.1207 44.407 24.9489C44.2352 24.7772 44.0023 24.6806 43.7594 24.6805H41.5332V21.2723C41.5332 21.0294 41.4367 20.7964 41.2649 20.6246C41.0931 20.4528 40.8601 20.3563 40.6172 20.3563H31.8394L32.2753 19.3042L33.612 19.0406C34.3332 18.8986 34.8566 18.2619 34.8566 17.5267V14.1577C34.8566 13.4227 34.3332 12.7861 33.612 12.6439L32.2753 12.3804L31.3408 10.125L32.0998 8.9931C32.5091 8.38264 32.429 7.56229 31.9093 7.04264L29.527 4.66048C29.0072 4.14071 28.1868 4.06075 27.5765 4.47008L26.4447 5.22906L24.1894 4.2946L23.9258 2.95774C23.7837 2.23657 23.1469 1.71313 22.4119 1.71313H19.0429C18.3079 1.71313 17.6713 2.23657 17.529 2.95774L17.2655 4.2946L15.01 5.22906L13.8782 4.47008C13.2678 4.06075 12.4473 4.14097 11.9278 4.66061L9.54554 7.04278C9.02589 7.56242 8.94581 8.38278 9.35514 8.99323L10.1141 10.125L9.17965 12.3804L7.84306 12.6439C7.12189 12.7861 6.59832 13.4228 6.59832 14.1577V17.5267C6.59832 18.2619 7.12176 18.8986 7.84293 19.0406L9.17965 19.3042L10.1141 21.5595L9.35514 22.6915C8.94581 23.3021 9.02589 24.1223 9.54567 24.6418L11.9278 27.024C12.4475 27.5437 13.2678 27.6239 13.8783 27.2145L15.0101 26.4555L17.2655 27.39L17.529 28.7268C17.6711 29.448 18.3079 29.9714 19.0429 29.9714H21.4761V30.1066L11.351 34.4002C11.1854 34.4704 11.0442 34.5878 10.9449 34.7378C10.8456 34.8878 10.7926 35.0636 10.7926 35.2435V39.772H4.51635C4.27341 39.772 4.04042 39.8685 3.86863 40.0403C3.69684 40.2121 3.60033 40.4451 3.60033 40.688V59.9815H1.43945C1.19651 59.9815 0.963519 60.0781 0.791732 60.2498C0.619946 60.4216 0.523438 60.6546 0.523438 60.8976V64.3711C0.523438 64.614 0.619946 64.847 0.791732 65.0188C0.963519 65.1906 1.19651 65.2871 1.43945 65.2871H65.5605C65.8035 65.2871 66.0365 65.1906 66.2083 65.0188C66.3801 64.847 66.4766 64.614 66.4766 64.3711V60.8976C66.4766 60.6546 66.3801 60.4216 66.2083 60.2498C66.0365 60.0781 65.8035 59.9815 65.5605 59.9815V59.9814ZM49.8613 22.5821H57.9261V25.3356H49.8613V22.5821ZM51.1341 27.1676H56.6533L57.8881 46.0445H49.8993L51.1341 27.1676ZM61.359 47.8765V59.9814H44.6753V47.8765H61.359ZM42.8432 59.9814H38.2663V49.7634C38.2663 48.2161 37.0074 46.9572 35.46 46.9572H30.6911C29.1438 46.9572 27.885 48.2161 27.885 49.7634V59.9814H23.308V26.5127H42.8431L42.8432 59.9814ZM36.4343 59.9814H29.717V49.7634C29.717 49.2263 30.1539 48.7893 30.6911 48.7893H35.46C35.9972 48.7893 36.4343 49.2262 36.4343 49.7634V59.9814ZM20.7273 21.7023C17.4962 21.7023 14.8673 19.0735 14.8673 15.8423C14.8673 12.6111 17.4962 9.98214 20.7273 9.98214C23.9585 9.98214 26.5874 12.611 26.5874 15.8423C26.5874 19.0736 23.9587 21.7023 20.7273 21.7023ZM39.701 24.6805H26.4505V22.1882H39.701V24.6805ZM19.2804 28.1393L18.9679 26.5542C18.9387 26.4061 18.8734 26.2676 18.7778 26.1509C18.6822 26.0342 18.5593 25.9429 18.4199 25.8851L15.2579 24.5752C15.1185 24.5174 14.967 24.495 14.8168 24.5099C14.6667 24.5248 14.5225 24.5766 14.3971 24.6606L13.0551 25.5606L11.0088 23.5143L11.9087 22.1723C11.9927 22.047 12.0445 21.9028 12.0594 21.7527C12.0743 21.6025 12.0519 21.451 11.9942 21.3116L10.6843 18.1496C10.6265 18.0102 10.5352 17.8872 10.4185 17.7916C10.3018 17.696 10.1632 17.6307 10.0152 17.6016L8.43022 17.2891V14.3952L10.0152 14.0827C10.1632 14.0536 10.3018 13.9883 10.4185 13.8927C10.5352 13.797 10.6265 13.6741 10.6843 13.5347L11.9942 10.3728C12.0519 10.2333 12.0743 10.0818 12.0594 9.93164C12.0445 9.78148 11.9927 9.63731 11.9087 9.51196L11.0088 8.16987L13.0551 6.12362L14.397 7.02354C14.5224 7.10759 14.6665 7.15937 14.8167 7.17427C14.9669 7.18918 15.1184 7.16676 15.2578 7.10899L18.4198 5.79896C18.5592 5.74122 18.6822 5.64993 18.7778 5.5332C18.8734 5.41647 18.9387 5.27792 18.9678 5.12987L19.2803 3.5449H22.1741L22.4866 5.12987C22.5158 5.27789 22.5811 5.41641 22.6767 5.53313C22.7723 5.64985 22.8953 5.74116 23.0347 5.79896L26.1966 7.10899C26.336 7.16669 26.4876 7.18907 26.6377 7.17417C26.7879 7.15926 26.932 7.10752 27.0574 7.02354L28.3994 6.12362L30.4456 8.16987L29.5457 9.51196C29.4617 9.63731 29.4099 9.78148 29.395 9.93164C29.3801 10.0818 29.4025 10.2333 29.4602 10.3728L30.7701 13.5347C30.8279 13.6741 30.9192 13.7971 31.0359 13.8927C31.1526 13.9883 31.2912 14.0536 31.4392 14.0827L33.0242 14.3952V17.2891L31.4392 17.6016C31.2912 17.6308 31.1527 17.6961 31.036 17.7917C30.9192 17.8873 30.8279 18.0102 30.7701 18.1496L29.856 20.356H26.9497C27.8727 19.0872 28.4191 17.5276 28.4191 15.842C28.4191 11.6006 24.9685 8.14985 20.7271 8.14985C16.4857 8.14985 13.035 11.6006 13.035 15.842C13.035 20.0834 16.4857 23.5341 20.7271 23.5341C22.0956 23.5352 23.4394 23.1689 24.6181 22.4733V24.6804H22.3917C22.1488 24.6804 21.9158 24.7769 21.744 24.9487C21.5722 25.1205 21.4757 25.3535 21.4757 25.5964V28.139H19.28L19.2804 28.1393ZM21.4761 32.0963V59.9813H12.6247V35.8498L21.4761 32.0963ZM5.43237 41.6038H10.7926V59.9813H5.43237V41.6038ZM64.6444 63.4548H2.35547V61.8133H64.6445V63.4548H64.6444Z" fill="white"/>
</svg>
