<svg width="63" height="65" viewBox="0 0 63 65" fill="none" xmlns="http://www.w3.org/2000/svg">
<circle cx="41" cy="21" r="21" fill="#036CD3"/>
<g clip-path="url(#clip0_90_3156)">
<path d="M36.7849 28.4267L27.77 36.9414L23.4434 32.4904C22.9637 31.9965 22.174 31.9853 21.6807 32.4649C21.1868 32.9451 21.1755 33.7344 21.6552 34.2282L26.8443 39.5551C27.0762 39.7885 27.3896 39.9228 27.7185 39.9297C28.0474 39.9366 28.3662 39.8156 28.6076 39.5921L38.5232 30.2397C38.6424 30.1273 38.7383 29.9925 38.8053 29.843C38.8724 29.6935 38.9093 29.5322 38.9139 29.3684C38.9186 29.2047 38.8909 29.0416 38.8324 28.8885C38.7739 28.7354 38.6859 28.5954 38.5732 28.4764C38.0906 27.9748 37.295 27.9528 36.7849 28.4267Z" fill="white"/>
<path d="M30.0966 15.3223C19.7936 15.3223 11.416 23.6999 11.416 34.0031C11.416 44.3066 19.7936 52.6842 30.0966 52.6842C40.4002 52.6842 48.7778 44.3066 48.7778 34.003C48.7778 23.7 40.4002 15.3223 30.0966 15.3223ZM30.0966 50.1834C21.1691 50.1834 13.9168 42.9184 13.9168 34.003C13.9168 25.0876 21.1691 17.8232 30.0966 17.8232C39.0331 17.8232 46.277 25.0671 46.277 34.003C46.277 42.9389 39.033 50.1834 30.0966 50.1834Z" fill="white"/>
<path d="M55.8042 27.1259L56.2168 19.7108C56.2309 19.4673 56.1732 19.2249 56.051 19.0138C55.9288 18.8027 55.7473 18.632 55.5291 18.523L48.927 15.1845L45.5885 8.58248C45.4773 8.366 45.3062 8.18606 45.0956 8.06412C44.8849 7.94219 44.6437 7.8834 44.4006 7.89477L36.973 8.29527L30.7836 4.20599C30.5795 4.07146 30.3404 3.99976 30.0959 3.99976C29.8514 3.99976 29.6123 4.07146 29.4082 4.20599L23.2187 8.29527L15.8044 7.88251C15.5608 7.86816 15.3184 7.92569 15.1072 8.04795C14.896 8.17022 14.7254 8.35183 14.6165 8.57023L11.2775 15.1723L4.67594 18.5108C4.45932 18.6219 4.27926 18.7929 4.1573 19.0036C4.03534 19.2142 3.97664 19.4556 3.98822 19.6987L4.40035 27.1135L0.311701 33.303C0.177172 33.5071 0.105469 33.7462 0.105469 33.9907C0.105469 34.2351 0.177172 34.4743 0.311701 34.6784L4.38822 40.8801L3.97547 48.295C3.96128 48.5386 4.01888 48.781 4.14113 48.9921C4.26337 49.2033 4.44489 49.3739 4.66319 49.4829L11.2652 52.8214L14.6038 59.4235C14.7148 59.6401 14.8859 59.8202 15.0965 59.9421C15.3072 60.0641 15.5485 60.1228 15.7917 60.1112L23.2065 59.6986L29.3959 63.7871C29.5985 63.9258 29.8382 63.9999 30.0836 63.9999C30.3291 63.9999 30.5688 63.9258 30.7713 63.7871L36.9608 59.6985L44.3758 60.1112C44.6194 60.1252 44.8617 60.0676 45.0728 59.9453C45.2839 59.8231 45.4546 59.6417 45.5637 59.4235L48.9021 52.8214L55.5042 49.4829C55.7207 49.3717 55.9007 49.2007 56.0226 48.99C56.1446 48.7794 56.2033 48.5381 56.1919 48.295L55.7793 40.8802L59.8679 34.6908C60.0025 34.4866 60.0742 34.2475 60.0742 34.0031C60.0742 33.7586 60.0025 33.5195 59.8679 33.3153L55.8042 27.1259ZM53.4782 39.8549C53.3256 40.0786 53.2551 40.3481 53.2785 40.6179L53.6657 47.6322L47.4265 50.7832C47.1887 50.9025 46.9958 51.0956 46.8766 51.3336L43.7251 57.5728L36.7108 57.1855C36.4424 57.1756 36.177 57.2451 35.9478 57.3852L30.096 61.2493L24.2446 57.3852C24.0414 57.2479 23.8021 57.1739 23.5568 57.1728H23.4943L16.4794 57.5607L13.3284 51.3208C13.2092 51.0829 13.0161 50.8899 12.778 50.7709L6.52602 47.6322L6.91389 40.6179C6.92364 40.3492 6.85387 40.084 6.71358 39.8549L2.85012 34.0031L6.71358 28.151C6.86649 27.9277 6.93728 27.6582 6.91389 27.3886L6.52602 20.3737L12.7658 17.2228C13.0037 17.1036 13.1966 16.9107 13.3158 16.6729L16.4667 10.4331L23.4816 10.8209C23.7498 10.8302 24.015 10.7609 24.2446 10.6206L30.0959 6.75716L35.9478 10.6206C36.1714 10.7735 36.441 10.8443 36.7108 10.8209L43.7251 10.4331L46.8766 16.6729C46.9958 16.9107 47.1887 17.1036 47.4265 17.2228L53.6657 20.3738L53.2785 27.3885C53.2689 27.6567 53.3383 27.9219 53.4782 28.151L57.3423 34.0029L53.4782 39.8549Z" fill="white"/>
</g>
<defs>
<clipPath id="clip0_90_3156">
<rect width="60" height="60" fill="white" transform="translate(0 4)"/>
</clipPath>
</defs>
</svg>
