<svg width="61" height="65" viewBox="0 0 61 65" fill="none" xmlns="http://www.w3.org/2000/svg">
<g clip-path="url(#clip0_282_385)">
<circle cx="38" cy="21" r="21" fill="#036CD3"/>
<path d="M32.0551 55.0546L32.0561 62.6876C32.0561 62.9694 31.9442 63.2396 31.7449 63.4389C31.5457 63.6381 31.2754 63.7501 30.9936 63.7501C30.7118 63.7501 30.4416 63.6381 30.2423 63.4389C30.0431 63.2396 29.9311 62.9694 29.9311 62.6876V55.1077C29.6933 50.7988 27.8146 46.7444 24.6809 43.7773C21.5472 40.8102 17.3965 39.1556 13.081 39.1532C12.7992 39.1532 12.5289 39.0412 12.3297 38.842C12.1304 38.6427 12.0185 38.3725 12.0185 38.0907V36.4938L4.23033 41.683L12.0185 46.8723V45.2647C12.0194 45.1157 12.0514 44.9685 12.1123 44.8326C12.1732 44.6966 12.2617 44.5748 12.3722 44.4748C12.4827 44.3749 12.6128 44.2991 12.7542 44.2521C12.8956 44.2052 13.0452 44.1882 13.1936 44.2022C16.1114 44.2575 18.8896 45.4617 20.9247 47.5534C22.9598 49.645 24.0875 52.4551 24.063 55.3733V62.6876C24.063 62.9696 23.9509 63.2402 23.7514 63.4396C23.552 63.6391 23.2815 63.7511 22.9994 63.7511C22.7173 63.7511 22.4468 63.6391 22.2473 63.4396C22.0479 63.2402 21.9358 62.9696 21.9358 62.6876V55.3733C21.9552 53.1834 21.1742 51.0617 19.7395 49.4071C18.3048 47.7524 16.3151 46.6787 14.1445 46.3878V48.8581C14.1422 49.0496 14.0885 49.237 13.9891 49.4007C13.8896 49.5644 13.7481 49.6984 13.5792 49.7887C13.4103 49.879 13.2202 49.9223 13.0288 49.9141C12.8375 49.9059 12.6518 49.8465 12.4913 49.7421L1.72495 42.567C1.58098 42.4687 1.46318 42.3368 1.38177 42.1826C1.30036 42.0285 1.25781 41.8568 1.25781 41.6825C1.25781 41.5081 1.30036 41.3365 1.38177 41.1823C1.46318 41.0282 1.58098 40.8962 1.72495 40.7979L12.4923 33.6229C12.653 33.5188 12.8387 33.4596 13.03 33.4517C13.2214 33.4437 13.4113 33.4871 13.5801 33.5775C13.749 33.6679 13.8905 33.8019 13.9899 33.9655C14.0894 34.1292 14.1431 34.3165 14.1456 34.5079V37.0558C18.8169 37.3424 23.2206 39.3333 26.5217 42.6508C29.8228 45.9683 31.7917 50.3819 32.0551 55.0546ZM52.2681 25.5851L41.5007 18.41C41.3401 18.3058 41.1544 18.2466 40.9632 18.2386C40.7719 18.2306 40.5819 18.274 40.4131 18.3645C40.2444 18.4549 40.103 18.5889 40.0036 18.7526C39.9043 18.9163 39.8508 19.1036 39.8485 19.2951V21.8429C35.8049 22.0797 31.942 23.5989 28.8205 26.1801C25.699 28.7613 23.4813 32.2702 22.4894 36.1973C22.4218 36.4709 22.4656 36.7602 22.6113 37.0015C22.7569 37.2428 22.9925 37.4164 23.2661 37.484C23.5397 37.5516 23.829 37.5078 24.0703 37.3621C24.3116 37.2165 24.4851 36.9809 24.5528 36.7073C25.4757 33.0655 27.5841 29.8342 30.5458 27.5227C33.5075 25.2113 37.1541 23.9509 40.911 23.9403C42.338 23.8808 41.9151 22.2254 41.9735 21.2809L49.7616 26.4701L41.9735 31.6594V30.0518C41.9724 29.902 41.9399 29.7541 41.8784 29.6176C41.8168 29.4811 41.7274 29.3589 41.6159 29.2589C41.5044 29.1589 41.3732 29.0833 41.2308 29.0368C41.0884 28.9904 40.9379 28.9742 40.7888 28.9893C37.8738 29.0452 35.0985 30.2486 33.0655 32.3384C31.0324 34.4281 29.9058 37.2355 29.9301 40.1509V42.9453C29.9301 43.2272 30.0421 43.4976 30.2414 43.6969C30.4408 43.8963 30.7112 44.0083 30.9931 44.0083C31.275 44.0083 31.5454 43.8963 31.7448 43.6969C31.9441 43.4976 32.0561 43.2272 32.0561 42.9453V40.1509C32.0367 37.9615 32.8181 35.8406 34.2532 34.1871C35.6883 32.5336 37.6782 31.4616 39.8485 31.1728V33.6452C39.8509 33.8365 39.9047 34.0238 40.004 34.1873C40.1034 34.3508 40.2449 34.4847 40.4136 34.575C40.5823 34.6653 40.7722 34.7087 40.9634 34.7006C41.1546 34.6925 41.3402 34.6334 41.5007 34.5292L52.2681 27.3541C52.4138 27.2571 52.5333 27.1256 52.616 26.9713C52.6987 26.817 52.7419 26.6447 52.7419 26.4696C52.7419 26.2945 52.6987 26.1222 52.616 25.9679C52.5333 25.8136 52.4138 25.6821 52.2681 25.5851ZM19.5027 16.8938H21.9369V27.7143C21.9369 27.9962 22.0489 28.2666 22.2482 28.466C22.4476 28.6653 22.718 28.7773 22.9999 28.7773C23.2819 28.7773 23.5522 28.6653 23.7516 28.466C23.951 28.2666 24.063 27.9962 24.063 27.7143V15.8313C24.0088 14.4628 22.4841 14.806 21.5629 14.7688L26.9965 7.122L32.4312 14.7688H30.9936C30.7118 14.7688 30.4416 14.8808 30.2423 15.08C30.0431 15.2793 29.9311 15.5495 29.9311 15.8313V20.9664C29.9311 21.2482 30.0431 21.5184 30.2423 21.7177C30.4416 21.9169 30.7118 22.0289 30.9936 22.0289C31.2754 22.0289 31.5457 21.9169 31.7449 21.7177C31.9442 21.5184 32.0561 21.2482 32.0561 20.9664V16.8938H34.4903C34.6843 16.8911 34.8739 16.8358 35.0389 16.7338C35.2039 16.6317 35.3381 16.4867 35.4271 16.3144C35.5161 16.142 35.5567 15.9487 35.5444 15.7551C35.5321 15.5614 35.4674 15.3748 35.3573 15.2151L27.8635 4.67082C27.7602 4.53973 27.6285 4.43378 27.4783 4.36094C27.3282 4.28809 27.1634 4.25024 26.9965 4.25024C26.8296 4.25024 26.6649 4.28809 26.5147 4.36094C26.3645 4.43378 26.2328 4.53973 26.1295 4.67082L18.6357 15.2151C18.5252 15.3747 18.4602 15.5614 18.4478 15.7552C18.4353 15.9489 18.4758 16.1424 18.5648 16.3149C18.6539 16.4874 18.7883 16.6324 18.9535 16.7344C19.1187 16.8364 19.3086 16.8915 19.5027 16.8938Z" fill="white"/>
</g>
<defs>
<clipPath id="clip0_282_385">
<rect width="61" height="65" fill="white"/>
</clipPath>
</defs>
</svg>
