<svg width="67" height="67" viewBox="0 0 67 67" fill="none" xmlns="http://www.w3.org/2000/svg">
<g clip-path="url(#clip0_90_3145)">
<circle cx="45" cy="21" r="21" fill="#036CD3"/>
<path d="M64.1058 18.802H64.1055L64.1034 18.7999L59.9713 18.2103C59.7633 18.1807 59.5687 18.09 59.4122 17.9498C59.2557 17.8096 59.1443 17.6261 59.0921 17.4226C59.0399 17.219 59.0493 17.0046 59.119 16.8063C59.1887 16.6081 59.3156 16.435 59.4837 16.3089L62.8234 13.8042C63.0488 13.6351 63.1978 13.3835 63.2376 13.1046C63.2775 12.8257 63.2049 12.5424 63.0359 12.317L59.2118 7.21828C59.0428 6.9929 58.7911 6.8439 58.5122 6.80406C58.2333 6.76422 57.95 6.8368 57.7247 7.00583L54.386 9.51059C54.2181 9.63806 54.0159 9.71264 53.8054 9.72485C53.5949 9.73705 53.3855 9.68632 53.2039 9.57913C53.0223 9.47193 52.8768 9.31311 52.7857 9.1229C52.6947 8.93268 52.6624 8.71968 52.6928 8.51102L53.2834 4.37891C53.3032 4.24083 53.2957 4.1002 53.2611 3.96504C53.2266 3.82989 53.1658 3.70287 53.0821 3.59122C52.9985 3.47957 52.8937 3.38549 52.7737 3.31435C52.6537 3.24321 52.5209 3.1964 52.3828 3.17659L52.3816 3.17646L46.0761 2.27568C45.9381 2.25585 45.7974 2.26341 45.6623 2.29794C45.5271 2.33246 45.4001 2.39327 45.2884 2.47689C45.1767 2.56051 45.0826 2.66531 45.0115 2.78529C44.9403 2.90528 44.8935 3.03811 44.8737 3.17619V3.17646L44.2831 7.30857C44.2534 7.5166 44.1628 7.71116 44.0226 7.86766C43.8823 8.02415 43.6988 8.13554 43.4953 8.18773C43.2918 8.23992 43.0773 8.23058 42.8791 8.16087C42.6809 8.09117 42.5077 7.96424 42.3817 7.79614L39.878 4.45646C39.7089 4.23108 39.4573 4.08208 39.1784 4.04224C38.8995 4.0024 38.6162 4.07497 38.3908 4.24401L35.1988 6.63936C33.7547 6.48586 32.2984 6.48586 30.8542 6.63936C21.3969 7.72032 13.9804 15.2625 13.0585 24.7367C13.0299 25.0373 13.0192 25.3358 13.0044 25.6343H12.6857C12.4412 25.6348 12.2043 25.7195 12.015 25.8744C11.8258 26.0292 11.6957 26.2445 11.6468 26.4841L10.9128 29.9746L7.97254 27.9468C7.76802 27.8057 7.52051 27.7408 7.27306 27.7633C7.02561 27.7858 6.79388 27.8943 6.61819 28.07L3.43147 31.2568C3.25604 31.4324 3.14766 31.6639 3.12515 31.9111C3.10264 32.1583 3.16743 32.4056 3.30825 32.6101L5.3265 35.545L1.83492 36.279C1.59792 36.3309 1.38583 36.4624 1.23393 36.6516C1.08203 36.8408 0.999477 37.0763 1 37.319V41.5679C0.999893 41.8117 1.08366 42.0481 1.23723 42.2375C1.39081 42.4269 1.60484 42.5576 1.84342 42.6078L5.335 43.3419L3.31675 46.2768C3.17592 46.4812 3.11114 46.7285 3.13365 46.9757C3.15616 47.223 3.26454 47.4545 3.43997 47.6301L6.62669 50.8168C6.80238 50.9925 7.03411 51.1011 7.28156 51.1236C7.52901 51.1461 7.77652 51.0812 7.98104 50.9401L10.916 48.9165L11.65 52.4081C11.6989 52.6476 11.829 52.863 12.0182 53.0178C12.2075 53.1726 12.4444 53.2574 12.6889 53.2579H16.9378C17.1817 53.258 17.4181 53.1742 17.6074 53.0206C17.7968 52.8671 17.9276 52.653 17.9778 52.4144L18.7118 48.9229L21.6468 50.9411C21.8512 51.0819 22.0985 51.1467 22.3457 51.1242C22.5929 51.1017 22.8244 50.9933 23 50.8179L24.6497 49.1629V52.1903C24.6521 52.9328 24.8496 53.6617 25.2224 54.3037C25.5953 54.9458 26.1304 55.4786 26.7742 55.8487V61.7505C26.7742 64.0971 28.6765 65.9994 31.0231 65.9994H35.2721C37.6187 65.9994 39.5211 64.0971 39.5211 61.7505V55.8487C40.1648 55.4786 40.6999 54.9458 41.0728 54.3037C41.4457 53.6617 41.6432 52.9328 41.6455 52.1903V47.986C41.6597 47.1154 41.8921 46.2623 42.3213 45.5048C42.7506 44.7472 43.363 44.1095 44.1025 43.6499C44.984 43.078 45.82 42.4387 46.603 41.7379L45.186 40.1551C44.4856 40.7829 43.7373 41.3551 42.9478 41.8664C41.9099 42.5179 41.0522 43.4196 40.4534 44.4888C39.8547 45.5581 39.5341 46.7606 39.5211 47.986V52.1903C39.5211 53.3637 38.57 54.3148 37.3966 54.3148H28.8987C27.7253 54.3148 26.7742 53.3637 26.7742 52.1903V47.8978C26.7621 46.6957 26.447 45.5162 25.858 44.4682C25.2691 43.4203 24.4253 42.5378 23.4048 41.9025C14.9856 36.6123 12.449 25.4988 17.7392 17.0796C19.3541 14.5095 21.5926 12.3894 24.2466 10.9164C26.9006 9.44337 29.8839 8.66528 32.9192 8.65443C32.9034 8.69226 32.8896 8.73091 32.8778 8.77021C32.8384 9.04911 32.9114 9.33223 33.0807 9.55733L35.5844 12.8959C35.7133 13.0628 35.7885 13.265 35.7998 13.4756C35.8112 13.6862 35.7583 13.8952 35.6481 14.075C35.5419 14.2562 35.3842 14.4015 35.1949 14.4925C35.0057 14.5835 34.7937 14.6161 34.5859 14.586L30.4538 13.9954C30.3157 13.9756 30.1751 13.9831 30.0399 14.0177C29.9048 14.0522 29.7777 14.113 29.6661 14.1967C29.5544 14.2803 29.4604 14.3851 29.3892 14.5051C29.3181 14.6251 29.2713 14.7579 29.2515 14.896L29.2513 14.8972L28.3495 21.2058C28.3095 21.4847 28.3819 21.768 28.5508 21.9935C28.7197 22.219 28.9713 22.3681 29.2501 22.4082L29.2513 22.4083L33.3834 22.9989C33.5915 23.0285 33.786 23.1192 33.9425 23.2594C34.099 23.3997 34.2104 23.5831 34.2626 23.7867C34.3148 23.9902 34.3054 24.2047 34.2357 24.4029C34.166 24.6011 34.0391 24.7742 33.871 24.9003L30.5324 27.404C30.307 27.573 30.158 27.8247 30.1182 28.1036C30.0783 28.3825 30.1509 28.6658 30.3199 28.8911L34.144 33.9899C34.313 34.2153 34.5647 34.3643 34.8436 34.4041C35.1225 34.444 35.4058 34.3714 35.6311 34.2023L38.9708 31.6986C39.1389 31.573 39.3404 31.4999 39.5499 31.4886C39.7595 31.4774 39.9677 31.5284 40.1482 31.6353C40.3288 31.7423 40.4736 31.9003 40.5645 32.0894C40.6553 32.2786 40.6881 32.4904 40.6587 32.6982L40.0692 36.8303C40.0493 36.9684 40.0569 37.109 40.0914 37.2442C40.126 37.3794 40.1868 37.5064 40.2704 37.6181C40.354 37.7297 40.4588 37.8238 40.5788 37.895C40.6988 37.9661 40.8316 38.013 40.9697 38.0328H40.97L47.2797 38.9346C47.3293 38.941 47.3794 38.9442 47.4294 38.9442C47.6852 38.9445 47.9325 38.8524 48.1259 38.685C48.3193 38.5176 48.4458 38.286 48.4821 38.0328L49.0717 33.9007C49.1013 33.6926 49.1919 33.4981 49.3322 33.3416C49.4724 33.1851 49.6559 33.0737 49.8594 33.0215C50.063 32.9693 50.2774 32.9787 50.4757 33.0484C50.6739 33.1181 50.847 33.245 50.9731 33.4131L53.4778 36.7517C53.6469 36.9771 53.8985 37.1261 54.1774 37.1659C54.4563 37.2058 54.7396 37.1332 54.965 36.9642L60.0637 33.1401C60.2891 32.9711 60.4381 32.7194 60.4779 32.4405C60.5178 32.1616 60.4452 31.8783 60.2762 31.653L57.7725 28.3144C57.6441 28.1472 57.5693 27.9451 57.5579 27.7347C57.5465 27.5242 57.5991 27.3153 57.7087 27.1353C57.8125 26.952 57.97 26.8049 58.1599 26.7137C58.3498 26.6226 58.563 26.5917 58.771 26.6254L62.9031 27.2149C63.0412 27.2348 63.1818 27.2272 63.317 27.1927C63.4521 27.1582 63.5792 27.0973 63.6908 27.0137C63.8025 26.9301 63.8966 26.8253 63.9677 26.7053C64.0389 26.5853 64.0857 26.4525 64.1055 26.3144V26.3142L65.0063 20.0045C65.0261 19.8664 65.0186 19.7257 64.9841 19.5906C64.9495 19.4554 64.8887 19.3284 64.8051 19.2167C64.7215 19.1051 64.6167 19.011 64.4967 18.9398C64.3767 18.8687 64.2439 18.8218 64.1058 18.802ZM28.8987 56.4393H37.3966V58.5637H28.8987V56.4393ZM28.8987 60.6882H37.3966V61.7505C37.3966 62.9238 36.4455 63.8749 35.2721 63.8749H31.0231C29.8498 63.8749 28.8987 62.9238 28.8987 61.7505V60.6882ZM20.4422 42.3699C21.0221 42.8443 21.6282 43.2858 22.2575 43.6924C23.2612 44.3267 24.0167 45.2862 24.398 46.4107L22.1194 48.6849L19.9132 47.1638C18.9471 46.498 17.6242 46.7416 16.9583 47.7077C16.7987 47.9393 16.6867 48.2004 16.6287 48.4757L16.0721 51.1281H13.5472L12.9906 48.4799C12.7489 47.3318 11.6223 46.5968 10.4741 46.8385C10.1988 46.8964 9.93778 47.0084 9.70612 47.168L7.49878 48.6849L5.56338 46.7538L7.08345 44.5486C7.74987 43.5828 7.50715 42.2598 6.54144 41.5934C6.30962 41.4334 6.04828 41.3211 5.77264 41.2631L3.12448 40.7054V38.1815L5.77264 37.6238C6.92039 37.3804 7.65361 36.2527 7.41022 35.1049C7.35251 34.8326 7.24184 34.5743 7.08451 34.3447L5.56338 32.1331L7.49878 30.202L9.70718 31.7231C10.6737 32.3882 11.9966 32.1439 12.6617 31.1774C12.821 30.9459 12.9328 30.6851 12.9906 30.4102L13.1765 29.5264C13.3466 30.7503 13.6286 31.956 14.0188 33.1284C10.5236 33.5451 8.02804 36.7164 8.44471 40.2116C8.86137 43.7067 12.0327 46.2023 15.5279 45.7857C16.564 45.6621 17.554 45.286 18.4108 44.6904C19.2677 44.0949 19.9652 43.298 20.4422 42.3699ZM18.7925 40.8732C17.9993 43.078 15.569 44.2223 13.3642 43.4292C11.1594 42.636 10.0151 40.2057 10.8082 38.0009C11.1043 37.1777 11.6477 36.4662 12.3639 35.9638C13.0801 35.4614 13.9341 35.1927 14.809 35.1945H14.8493C15.8262 37.3007 17.1603 39.222 18.7925 40.8732ZM62.1468 24.9587L59.0663 24.519C57.3239 24.2701 55.7099 25.481 55.461 27.2232C55.3415 28.0598 55.5593 28.9097 56.0665 29.5859L57.9329 32.0747L54.5337 34.6241L52.6663 32.1363C51.6104 30.7282 49.613 30.4426 48.205 31.4984C47.5289 32.0054 47.0818 32.7603 46.962 33.5969L46.5318 36.6816L42.3264 36.0804L42.7662 32.9999C43.0157 31.2577 41.8055 29.6431 40.0633 29.3937C39.6488 29.3343 39.2267 29.3573 38.8211 29.4611C38.4154 29.565 38.0343 29.7478 37.6993 29.9991L35.2105 31.8654L32.6611 28.4663L35.1489 26.5988C36.557 25.543 36.8426 23.5456 35.7868 22.1376C35.2797 21.4614 34.5249 21.0143 33.6883 20.8946L30.6078 20.4548L31.209 16.2494L34.2895 16.6892C36.0317 16.9387 37.6463 15.7285 37.8957 13.9863C37.9551 13.5718 37.9322 13.1497 37.8283 12.7441C37.7244 12.3385 37.5416 11.9573 37.2904 11.6223L35.4176 9.13137L38.8168 6.582L40.6842 9.07082C41.7401 10.479 43.7375 10.7646 45.1455 9.7087C45.8216 9.20167 46.2687 8.44686 46.3884 7.61024L46.8282 4.52975L51.0336 5.12992L50.5938 8.21041C50.345 9.95275 51.5557 11.5668 53.298 11.8157C54.1347 11.9352 54.9846 11.7174 55.6607 11.2102L58.1496 9.34382L60.6989 12.743L58.2101 14.6104C56.802 15.6663 56.5164 17.6637 57.5722 19.0717C58.0793 19.7478 58.8341 20.1949 59.6707 20.3146L62.7512 20.7544L62.1468 24.9587Z" fill="white"/>
<path d="M46.6756 12.1056C41.9824 12.1056 38.1777 15.9102 38.1777 20.6035C38.1777 25.2967 41.9824 29.1014 46.6756 29.1014C51.3688 29.1014 55.1735 25.2967 55.1735 20.6035C55.1682 15.9124 51.3667 12.1107 46.6756 12.1056ZM46.6756 26.9769C43.1556 26.9769 40.3022 24.1235 40.3022 20.6035C40.3022 17.0835 43.1556 14.2301 46.6756 14.2301C50.1956 14.2301 53.049 17.0835 53.049 20.6035C53.0449 24.1218 50.1939 26.9728 46.6756 26.9769ZM32.0847 49.0035H34.2092V52.1902H32.0847V49.0035ZM28.5007 38.5713C21.9433 36.0097 18.7042 28.6173 21.2659 22.0599C22.2585 19.5191 24.04 17.3637 26.3486 15.9105L25.2131 14.1132C18.2639 18.4911 16.1794 27.6735 20.5573 34.6227C22.2528 37.314 24.7666 39.3908 27.7295 40.5481C30.3522 41.553 32.084 44.0705 32.0847 46.879H34.2092C34.2125 43.1941 31.9417 39.8894 28.5007 38.5713ZM53.3295 41.5678H60.7651V43.6923H53.3295V41.5678ZM51.5875 48.7567L52.9473 47.1244L59.3213 52.4348L57.9614 54.067L51.5875 48.7567ZM46.956 50.0658H49.0805V57.5014H46.956V50.0658ZM2.08398 20.3537L10.5814 18.2298L11.0963 20.2896L2.5989 22.4138L2.08398 20.3537ZM3.8485 9.50322L5.08269 7.77535L12.5177 13.086L11.2836 14.8139L3.8485 9.50322ZM12.9499 2.5267L15.008 2.00049L17.1807 10.4977L15.1226 11.0239L12.9499 2.5267Z" fill="white"/>
</g>
<defs>
<clipPath id="clip0_90_3145">
<rect width="67" height="67" fill="white"/>
</clipPath>
</defs>
</svg>
